<svg width="56" height="56" viewBox="0 0 56 56" fill="none" xmlns="http://www.w3.org/2000/svg">
<g clip-path="url(#clip0_797_4585)">
<path d="M53.3985 38.8691C52.5618 40.9659 49.3861 45.4455 46.3685 48.6392C45.3822 49.6828 44.2613 50.5877 43.0378 51.34C41.3067 52.4049 38.8362 54.0109 37.7441 54.4345C36.5805 54.8869 35.389 55.2711 34.1666 55.5571C33.5287 55.6915 32.8523 55.8003 32.131 55.8772C29.7022 56.1343 26.7797 56.0159 23.2118 55.2145C19.6716 54.7503 16.4018 53.3792 13.3009 51.7647C11.65 50.7606 10.4735 50.0328 8.97536 48.588C7.56593 47.2296 4.7396 45.2982 1.6333 37.9568C-0.826518 32.1412 -0.307199 24.7678 1.85663 18.9917C3.68173 10.8553 10.3602 5.01417 17.6392 1.53658C19.4173 0.279573 32.4526 0.0714938 34.0662 0C37.4097 0.395883 40.6581 1.73612 43.494 3.49359C46.2146 5.8945 50.0999 8.73291 51.6279 11.0388C54.0065 14.08 55.0836 17.8404 55.8391 21.5708C56.3766 27.4387 55.5687 33.4313 53.3985 38.8691Z" fill="#FFF6EB"/>
<path d="M39.1025 8.42063C34.6579 8.20819 29.6803 10.3398 28.5442 15.0021C27.9999 17.2353 28.5949 19.0711 26.7886 20.8028C26.5941 20.9899 26.587 21.2971 26.7774 21.4871L27.722 22.4287C26.3106 24.8432 27.5827 25.765 28.1596 27.9503L26.5843 27.4478C26.2853 25.9113 27.2099 23.8303 26.6204 22.3586C25.9527 20.6929 21.4052 20.4452 20.391 22.1283C19.457 23.6785 21.362 23.9825 21.6336 25.4661C17.9111 23.7276 12.9172 28.045 9.32986 26.4864C7.87784 25.8552 7.24555 23.0415 5.04572 23.3354L6.68336 35.2C9.16116 37.1296 10.8496 36.2484 12.0548 34.4341C6.11956 43.3696 17.2024 52.1795 27.0274 48.7897C33.0051 46.7279 39.9703 42.8539 41.5561 36.3415C41.9166 34.8599 41.4397 33.5283 41.6394 32.0702C41.8769 30.3413 43.3194 29.0438 44.4826 27.8868C46.2791 26.0987 48.1832 24.2412 48.4716 21.6129C48.9077 17.6374 49.5584 13.2939 42.4582 9.10591C41.7987 8.71681 41.0528 8.4963 40.2859 8.46745L39.1007 8.42374L39.1025 8.42063Z" fill="#EFC7A2"/>
</g>
<defs>
<clipPath id="clip0_797_4585">
<rect width="56" height="56" fill="white"/>
</clipPath>
</defs>
</svg>
