<svg width="135" height="130" viewBox="0 0 135 130" fill="none" xmlns="http://www.w3.org/2000/svg">
<path d="M81.4564 0H24.0774C23.2321 0 22.5469 0.804282 22.5469 1.79641V52.9758C22.5469 53.9679 23.2321 54.7722 24.0774 54.7722H81.4564C82.3017 54.7722 82.9869 53.9679 82.9869 52.9758V1.79641C82.9869 0.804282 82.3017 0 81.4564 0Z" fill="#E3E3FD"/>
<path d="M78.9744 2.78516H26.5619C25.8201 2.78516 25.2188 3.49095 25.2188 4.3616V50.4267C25.2188 51.2974 25.8201 52.0032 26.5619 52.0032H78.9744C79.7162 52.0032 80.3175 51.2974 80.3175 50.4267V4.3616C80.3175 3.49095 79.7162 2.78516 78.9744 2.78516Z" fill="#5B98E8"/>
<path d="M75.4706 33.583C69.8263 39.2448 62.8147 42.693 55.4177 43.4449C46.2607 44.161 37.2149 40.7595 30.1172 33.9313C35.2293 26.3668 40.3415 18.7901 45.4536 11.2012H60.2747L75.4706 33.583Z" fill="#FFC5D2"/>
<path d="M62.4532 25.2794C62.0253 26.4449 61.2784 27.4096 60.3307 28.0205C59.3831 28.6315 58.2888 28.8538 57.2213 28.6523C56.4107 28.5002 55.6457 28.1116 54.9963 27.5223C54.3468 26.9331 53.8338 26.1619 53.5043 25.2794C53.5043 25.1511 53.3013 24.4362 53.5043 24.1979C53.7073 23.9596 53.6917 24.1979 53.7698 24.033C53.8479 23.868 53.7698 23.5747 53.7698 23.2264C53.7698 22.8781 53.9416 23.0248 54.0821 22.7315C54.2227 22.4382 54.1602 22.0532 54.3164 21.8883C54.4726 21.7233 54.863 21.8883 55.191 21.9799C56.0812 21.9799 56.4092 20.2935 57.3931 19.6519C58.0682 19.3856 58.7926 19.342 59.4874 19.5259C60.1822 19.7097 60.8206 20.114 61.333 20.6946C61.8454 21.2752 62.2121 22.0099 62.3931 22.8184C62.5741 23.6269 62.5625 24.4782 62.3595 25.2794H62.4532Z" fill="white"/>
<path d="M57.4576 27.6804C58.2385 29.3669 54.3341 35.7093 49.8519 35.471C47.4468 35.3427 44.5419 33.3263 44.4794 30.925C44.4521 30.219 44.6219 29.5219 44.963 28.9396C45.3041 28.3573 45.7978 27.9216 46.3691 27.6988C47.6654 27.5155 48.3682 29.9351 49.8363 29.7335C50.6171 29.7335 50.8045 28.9086 51.6479 28.1754C53.5845 26.4706 56.9579 26.5073 57.4576 27.6804Z" fill="white"/>
<path d="M48.4521 27.8627C48.4521 29.2925 47.9836 30.4657 47.3901 30.4657C46.7967 30.4657 46.3281 29.2925 46.3281 27.8627C46.3281 26.4329 46.8123 25.2598 47.3901 25.2598C47.968 25.2598 48.4521 26.4146 48.4521 27.8627Z" fill="white"/>
<path d="M47.6753 25.371C47.6828 25.6215 47.6465 25.871 47.5686 26.1044C47.4907 26.3377 47.3729 26.5497 47.2224 26.7275C46.7851 27.1858 46.3322 26.8558 45.6606 27.3324C45.2389 27.6257 45.317 27.809 44.7548 28.249C44.4424 28.4873 43.8958 28.9089 43.5991 28.7072C43.3024 28.5056 43.4273 28.3223 43.3961 27.6624C43.3024 25.8293 43.193 25.4993 43.3961 25.3527C43.612 25.2663 43.8477 25.2787 44.0562 25.3875C44.2646 25.4962 44.4305 25.6933 44.5205 25.9393C44.6142 26.3059 44.3331 26.6908 44.38 26.7275C44.4268 26.7642 44.708 26.1959 45.1765 25.756C45.4934 25.4616 45.8661 25.2613 46.2631 25.172C46.66 25.0826 47.0694 25.1069 47.4566 25.2427L47.6753 25.371Z" fill="white"/>
<path d="M48.8986 29.1266C47.9303 30.0065 46.8527 30.2998 46.4935 29.7498C46.1343 29.1999 46.6184 28.0634 47.5867 27.1652C48.555 26.267 49.617 25.992 49.9762 26.5236C50.3354 27.0552 49.8513 28.2284 48.8986 29.1266Z" fill="white"/>
<path d="M50.0794 26.8871C49.9204 27.0559 49.7315 27.1812 49.5262 27.2541C49.321 27.327 49.1046 27.3456 48.8925 27.3087C48.3147 27.1804 48.2522 26.5755 47.5026 26.2272C47.0496 26.0256 46.9716 26.2272 46.3312 25.9523C45.972 25.8239 45.3473 25.5856 45.3161 25.1824C45.2848 24.7791 45.4566 24.7791 45.8783 24.3575C47.0965 23.0743 47.2058 22.8177 47.4401 22.9094C47.629 23.056 47.7642 23.2804 47.8191 23.5382C47.874 23.7961 47.8447 24.0688 47.7368 24.3025C47.5494 24.6141 47.1121 24.5958 47.1277 24.6691C47.1433 24.7424 47.6743 24.6691 48.2522 24.7974C48.6527 24.9075 49.0236 25.1326 49.3316 25.4526C49.6397 25.7725 49.8752 26.1773 50.017 26.6305C50.0431 26.7141 50.064 26.7999 50.0794 26.8871Z" fill="white"/>
<path d="M54.2013 27.3858C54.2013 28.1373 53.3267 28.7606 52.2491 28.7606C51.1715 28.7606 50.3125 28.1373 50.3125 27.3858C50.3125 26.6342 51.1871 26.0293 52.2491 26.0293C53.3111 26.0293 54.2013 26.7075 54.2013 27.3858Z" fill="white"/>
<path d="M51.8158 37.7082H51.5815C49.8287 37.703 48.0809 37.488 46.3653 37.0666C45.4855 36.8091 44.6239 36.472 43.7884 36.0584C42.0705 35.1786 41.0397 34.647 40.4618 33.4921C39.6966 31.9707 40.1339 30.2659 40.7586 27.9929C41.0703 25.9692 41.9303 24.1177 43.2105 22.7137C43.8711 22.1042 44.6691 21.7347 45.5063 21.6505C46.3064 21.5771 47.0712 21.2333 47.7084 20.6606C48.3984 20.072 48.9384 19.2734 49.2702 18.351C49.3859 17.9625 49.5712 17.6077 49.8137 17.3104C50.0562 17.0132 50.3501 16.7804 50.6757 16.6279C51.0947 16.4894 51.5358 16.4704 51.9623 16.5724C52.3888 16.6745 52.7883 16.8946 53.1277 17.2144C54.063 17.872 55.0966 18.3137 56.1731 18.5159C57.3494 18.6949 58.5442 18.5951 59.6871 18.2226C60.1148 18.0169 60.5777 17.9312 61.0386 17.9726C61.4996 18.014 61.9459 18.1812 62.3421 18.4609C63.3572 19.3591 63.4665 20.8256 63.6539 23.5202C63.8279 26.3846 63.3988 29.2552 62.4045 31.879C62.1114 32.8662 61.6549 33.7758 61.0614 34.5553C59.8745 36.0218 58.3596 36.3884 55.8764 37.0666C54.5491 37.4673 53.1861 37.6826 51.8158 37.7082ZM51.3785 16.8295C51.1807 16.8289 50.9846 16.8725 50.8007 16.9578C50.1604 17.2328 49.9261 17.7644 49.6294 18.4793C49.2571 19.4551 48.676 20.3013 47.9427 20.9356C47.2516 21.5464 46.43 21.9207 45.5688 22.0171C44.7953 22.0911 44.057 22.4288 43.4448 22.9886C42.2418 24.3444 41.4285 26.1063 41.1178 28.0296C40.5399 30.2843 40.1183 31.8974 40.8054 33.2538C41.3052 34.2804 42.2422 34.7753 43.9289 35.6368C44.7432 36.0453 45.584 36.3763 46.4434 36.6267C48.1296 37.0296 49.8452 37.2383 51.5659 37.2499C52.9872 37.2323 54.4001 36.9918 55.7671 36.535C58.4689 35.8201 59.7027 35.4535 60.7647 34.152C61.3243 33.3979 61.7587 32.5275 62.0453 31.5857C63.0023 29.0334 63.4202 26.2477 63.2635 23.4652C63.0761 20.9173 62.9824 19.5058 62.1078 18.7359C61.2332 17.966 60.7335 18.3326 59.7652 18.5893C58.5693 18.9645 57.3219 19.058 56.095 18.8642C54.9867 18.6632 53.9244 18.2018 52.9715 17.5077C52.5029 17.1037 51.955 16.8452 51.3785 16.7562V16.8295Z" fill="white"/>
<path d="M52.2784 38.9193H51.6224C48.9197 38.8127 46.2268 38.4819 43.5638 37.9295C43.5143 37.9126 43.4715 37.8757 43.443 37.8254C43.4144 37.7751 43.4019 37.7146 43.4076 37.6545C43.4111 37.6235 43.4203 37.5938 43.4344 37.5672C43.4485 37.5407 43.4672 37.518 43.4894 37.5007C43.5116 37.4833 43.5366 37.4717 43.5629 37.4666C43.5892 37.4616 43.6161 37.4631 43.6419 37.4712C46.2839 38.0236 48.956 38.3544 51.6381 38.4611C53.4288 38.519 55.2206 38.4025 56.9949 38.1128C58.1277 37.9746 59.2318 37.6088 60.259 37.0313C60.8276 36.7521 61.3548 36.3685 61.8207 35.8948C62.9169 34.4947 63.625 32.7367 63.851 30.8538C64.0773 29.846 64.2546 28.824 64.382 27.7926C64.3834 27.7623 64.3905 27.7328 64.4029 27.7062C64.4153 27.6797 64.4327 27.6567 64.4537 27.6391C64.4747 27.6215 64.4988 27.6097 64.5243 27.6045C64.5497 27.5993 64.5758 27.601 64.6006 27.6093C64.6268 27.6114 64.6523 27.6199 64.6754 27.6343C64.6986 27.6487 64.7189 27.6686 64.7351 27.6928C64.7513 27.717 64.763 27.7449 64.7694 27.7747C64.7758 27.8045 64.7769 27.8356 64.7724 27.8659C64.6384 28.9095 64.4559 29.9436 64.2258 30.9638C63.978 32.9349 63.2328 34.7737 62.0862 36.2431C61.5809 36.7373 61.0182 37.1447 60.4151 37.4529C59.3513 38.0393 58.2109 38.4111 57.0417 38.5527C55.4625 38.797 53.8713 38.9195 52.2784 38.9193Z" fill="white"/>
<path d="M41.7492 36.4801C41.5156 36.4837 41.2832 36.4403 41.062 36.3518C39.6565 35.8385 39.1723 33.8588 39.0005 33.1256C38.7186 31.87 38.7186 30.55 39.0005 29.2944C39.2766 27.8059 39.8433 26.4129 40.656 25.225C40.6871 25.1788 40.7325 25.149 40.7823 25.1421C40.8321 25.1353 40.8821 25.1519 40.9215 25.1884C40.9608 25.2248 40.9862 25.2781 40.9921 25.3366C40.998 25.395 40.9838 25.4538 40.9527 25.5C40.1922 26.6496 39.6587 27.9832 39.391 29.4044C39.1151 30.605 39.1151 31.87 39.391 33.0706C39.5472 33.7488 39.9844 35.5452 41.187 35.9852C41.4646 36.0591 41.7527 36.0591 42.0303 35.9852C42.0728 35.9994 42.1101 36.0294 42.1367 36.0708C42.1632 36.1121 42.1776 36.1625 42.1776 36.2143C42.1776 36.2661 42.1632 36.3165 42.1367 36.3578C42.1101 36.3991 42.0728 36.4292 42.0303 36.4434L41.7492 36.4801Z" fill="white"/>
<path d="M53.9407 41.3701C53.154 41.3619 52.3793 41.1424 51.6761 40.7285C51.1221 40.4535 50.5534 40.2208 49.9738 40.0319C49.4643 39.8725 48.9393 39.7924 48.412 39.7936C45.5026 39.7605 42.6406 38.9254 40.0566 37.3556C39.2301 36.8335 38.523 36.0853 37.9951 35.1743C37.1774 33.4087 36.9651 31.3433 37.4016 29.4001C37.5101 27.9646 37.9471 26.5901 38.6667 25.4223C38.9477 25.02 39.2674 24.6571 39.6193 24.3408C40.12 23.8893 40.5804 23.3796 40.9937 22.8194C41.2972 22.4302 41.574 22.0134 41.8214 21.5729C41.969 21.2685 42.1716 21.0058 42.4149 20.803C43.0084 20.2878 43.7228 19.9998 44.4608 19.9781C44.9708 19.9382 45.4693 19.7826 45.9288 19.5198C46.4386 19.1163 46.8723 18.594 47.2028 17.9854C47.5332 17.3768 47.7535 16.6948 47.8498 15.982C47.8527 15.9512 47.8617 15.9215 47.876 15.8954C47.8903 15.8693 47.9095 15.8474 47.9321 15.8315C47.9548 15.8155 47.9803 15.8059 48.0067 15.8034C48.033 15.8009 48.0595 15.8056 48.0841 15.817C48.1091 15.8234 48.1327 15.8357 48.1535 15.8532C48.1743 15.8707 48.1918 15.8931 48.205 15.9188C48.2182 15.9446 48.2267 15.9732 48.2301 16.003C48.2335 16.0328 48.2316 16.0631 48.2246 16.092C48.1103 16.8729 47.8582 17.6172 47.4843 18.277C47.1105 18.9367 46.6232 19.4975 46.0538 19.9231C45.5695 20.2179 45.0369 20.3867 44.492 20.418C43.8227 20.4465 43.1757 20.7081 42.6335 21.1696C42.4264 21.3421 42.2555 21.5678 42.1338 21.8295C41.8723 22.2852 41.5854 22.72 41.2748 23.131C40.8421 23.7052 40.3665 24.2328 39.8536 24.7074C39.5192 24.9945 39.2197 25.3337 38.9634 25.7156C38.2976 26.7924 37.8879 28.0578 37.7765 29.3818C37.3558 31.2278 37.5455 33.1923 38.3074 34.881C38.8048 35.743 39.4752 36.4481 40.2596 36.934C42.1162 38.2141 44.202 38.9674 46.3505 39.1337C47.028 39.2489 47.7119 39.3041 48.3964 39.2987C48.9608 39.2953 49.5229 39.3816 50.0675 39.5553C50.6621 39.7528 51.2462 39.9915 51.8167 40.2702C52.4586 40.6441 53.1619 40.8504 53.8782 40.8751C54.815 40.8402 55.733 40.5583 56.5644 40.0503H56.6893C59.6411 38.5838 61.0466 38.0522 61.7963 37.7589C62.2613 37.6391 62.6984 37.4014 63.0769 37.0624C65.4976 34.826 65.9974 30.7383 65.9818 27.6953C65.9818 27.637 66.0015 27.5811 66.0367 27.5398C66.0718 27.4986 66.1195 27.4754 66.1692 27.4754C66.1951 27.4728 66.2212 27.4766 66.2457 27.4866C66.2703 27.4965 66.2928 27.5123 66.3119 27.5329C66.331 27.5536 66.3463 27.5788 66.3566 27.6067C66.367 27.6347 66.3723 27.6649 66.3722 27.6953C66.3722 30.8482 65.8568 35.0276 63.2487 37.429C62.8361 37.7965 62.3627 38.0587 61.8587 38.1989C61.1091 38.4922 59.7191 39.0237 56.7674 40.4719H56.6581C55.8162 40.9923 54.8902 41.2984 53.9407 41.3701Z" fill="white"/>
<path d="M64.3936 26.4749C64.3654 26.4728 64.3379 26.4638 64.3129 26.4484C64.2879 26.4331 64.2659 26.4119 64.2482 26.386C64.2306 26.3601 64.2177 26.3302 64.2105 26.2982C64.2033 26.2661 64.2018 26.2327 64.2062 26.2C64.4168 24.7009 64.4168 23.1714 64.2062 21.6723C64.1747 20.4346 63.8204 19.2382 63.1911 18.2444C62.5185 17.4196 61.6363 16.8729 60.6766 16.6863C59.7932 16.4297 58.8652 16.4807 58.006 16.8329C57.2309 17.1617 56.3943 17.2377 55.5853 17.0529C54.8301 16.8514 54.118 16.4709 53.4925 15.9347C52.9349 15.375 52.2272 15.0635 51.4935 15.0549C50.6724 15.0854 49.8759 15.3907 49.1977 15.9347C49.1803 15.9553 49.1596 15.9715 49.1368 15.9826C49.114 15.9937 49.0896 15.9994 49.065 15.9994C49.0403 15.9994 49.0159 15.9937 48.9931 15.9826C48.9703 15.9715 48.9496 15.9553 48.9322 15.9347C48.9003 15.8915 48.8828 15.8361 48.8828 15.7789C48.8828 15.7217 48.9003 15.6664 48.9322 15.6231C49.6662 15.0355 50.5274 14.7049 51.4154 14.6699C52.236 14.6754 53.0301 15.012 53.6643 15.6231C54.2437 16.1317 54.9095 16.488 55.6165 16.668C56.362 16.855 57.1376 16.785 57.8499 16.4663C58.7708 16.0968 59.7629 16.0459 60.7079 16.3197C61.7548 16.5164 62.7162 17.1161 63.4409 18.0244C64.1213 19.0846 64.5083 20.3642 64.5498 21.6906C64.7603 23.2389 64.7603 24.8166 64.5498 26.3649C64.532 26.3954 64.5089 26.4209 64.4819 26.4399C64.455 26.4589 64.4248 26.4708 64.3936 26.4749Z" fill="white"/>
<path d="M59.843 40.5913C59.801 40.5899 59.7605 40.5733 59.7269 40.5437C59.6934 40.5142 59.6684 40.4732 59.6555 40.4263C59.6486 40.3974 59.6467 40.3671 59.6501 40.3373C59.6534 40.3076 59.662 40.2789 59.6751 40.2531C59.6883 40.2274 59.7058 40.2051 59.7266 40.1875C59.7474 40.17 59.7711 40.1577 59.7961 40.1514L61.3579 39.6014C62.0342 39.3797 62.6969 39.1041 63.3413 38.7765C64.0886 38.3307 64.7483 37.7063 65.2779 36.9435C65.9449 35.9029 66.3894 34.6897 66.5741 33.4056C66.71 32.6876 66.7988 31.9583 66.8396 31.2243C66.8396 30.6744 66.8396 30.3261 66.8396 29.6662V28.878C66.8396 27.8881 66.8396 27.3565 66.8396 27.0449C66.8396 26.7333 66.8396 26.5866 66.8396 26.3483C66.7748 24.8376 66.4169 23.3643 65.7932 22.0406C65.7831 21.9898 65.7875 21.9366 65.8056 21.889C65.8238 21.8414 65.8547 21.8021 65.8937 21.7771C65.9327 21.7522 65.9776 21.7429 66.0215 21.7508C66.0654 21.7586 66.1059 21.7832 66.1368 21.8206C66.7831 23.2093 67.1566 24.75 67.2301 26.33C67.2301 26.5683 67.2301 26.7699 67.2301 27.0449C67.2301 27.3198 67.2301 27.9431 67.2301 28.878V29.6662C67.254 30.1913 67.254 30.7175 67.2301 31.2426C67.2047 32.0075 67.1211 32.7682 66.9802 33.5156C66.7667 34.8449 66.2965 36.099 65.6058 37.1818C65.037 38.0026 64.3299 38.6765 63.5287 39.1615C62.8771 39.5093 62.2035 39.7974 61.514 40.023L59.9523 40.573L59.843 40.5913Z" fill="white"/>
<path d="M52.2009 12.0481H49.7489C48.5932 12.0481 47.4063 12.0481 46.2506 11.9015C46.2246 11.9016 46.1989 11.8954 46.1751 11.8832C46.1512 11.871 46.1298 11.8531 46.1122 11.8307C46.0946 11.8083 46.0811 11.7819 46.0727 11.753C46.0642 11.7242 46.061 11.6936 46.0632 11.6632C46.0671 11.6032 46.0902 11.5472 46.1279 11.5064C46.1655 11.4656 46.2149 11.443 46.2662 11.4432C47.4219 11.4432 48.5932 11.5715 49.7645 11.5899C53.1379 11.5899 56.5425 11.5899 59.9003 11.3332C59.9261 11.328 59.9526 11.3293 59.978 11.3368C60.0034 11.3444 60.0272 11.3581 60.0478 11.3771C60.0684 11.3961 60.0854 11.4199 60.0976 11.4471C60.1099 11.4743 60.1172 11.5042 60.119 11.5349C60.1211 11.5653 60.1179 11.5959 60.1095 11.6247C60.101 11.6535 60.0875 11.68 60.0699 11.7024C60.0523 11.7248 60.0309 11.7427 60.0071 11.7549C59.9833 11.7671 59.9575 11.7733 59.9316 11.7732C57.3703 12.0481 54.7778 12.0481 52.2009 12.0481Z" fill="white"/>
<path d="M53.4287 13.3796C51.8253 13.3673 50.224 13.2388 48.6341 12.9947C47.5096 12.848 46.354 12.6464 45.2295 12.3898C45.2047 12.3854 45.181 12.3751 45.1596 12.3597C45.1383 12.3444 45.1198 12.3241 45.1052 12.3002C45.0907 12.2763 45.0803 12.2491 45.0749 12.2205C45.0694 12.1918 45.0688 12.1621 45.0733 12.1331C45.0768 12.1022 45.086 12.0724 45.1001 12.0459C45.1142 12.0193 45.1329 11.9966 45.1551 11.9793C45.1773 11.9619 45.2023 11.9503 45.2286 11.9453C45.2549 11.9402 45.2818 11.9418 45.3076 11.9498C46.4164 12.1881 47.5565 12.3898 48.681 12.5364C51.2001 12.9597 53.7529 13.0335 56.2867 12.7564C57.7805 12.5685 59.2587 12.2375 60.7065 11.7665C60.7562 11.752 60.8088 11.7611 60.8527 11.7921C60.8967 11.823 60.9283 11.8732 60.9408 11.9315C60.9532 11.9899 60.9454 12.0516 60.919 12.1032C60.8927 12.1547 60.8499 12.1919 60.8002 12.2065C59.3323 12.6868 57.8332 13.024 56.318 13.2147C55.3581 13.3306 54.3936 13.3856 53.4287 13.3796Z" fill="white"/>
<path d="M52.8828 14.2825C50.1023 14.2842 47.3306 13.9153 44.6211 13.1827C44.5727 13.1656 44.5315 13.1279 44.5055 13.0771C44.4795 13.0262 44.4706 12.9658 44.4805 12.9077C44.4859 12.8783 44.4965 12.8506 44.5114 12.8262C44.5263 12.8018 44.5453 12.7812 44.5673 12.7657C44.5892 12.7503 44.6136 12.7402 44.639 12.7363C44.6644 12.7323 44.6902 12.7345 44.7148 12.7427C47.3945 13.4602 50.1342 13.8229 52.8828 13.8242C55.5458 13.815 58.2003 13.4708 60.8009 12.7977C60.8504 12.7861 60.9019 12.7965 60.9452 12.827C60.9885 12.8575 61.0206 12.9059 61.0351 12.9627C61.0449 12.9915 61.0489 13.0226 61.0468 13.0535C61.0446 13.0845 61.0365 13.1144 61.0229 13.141C61.0092 13.1676 60.9906 13.1902 60.9683 13.2069C60.9461 13.2237 60.9209 13.2342 60.8946 13.2376C58.2679 13.9149 55.5877 14.2651 52.8984 14.2825H52.8828Z" fill="white"/>
<path d="M39.2075 38.4004H39.0669C37.3105 36.5341 36.139 34.0294 35.7404 31.2881C35.6375 30.0096 35.6848 28.7205 35.8809 27.457C36.1621 25.294 36.5525 24.8174 36.6774 24.6707C36.9426 24.3387 37.2942 24.1195 37.677 24.0475C38.1028 23.921 38.5052 23.7035 38.8639 23.4059C39.4658 22.8985 39.9933 22.2793 40.4257 21.5728C40.6839 21.221 40.9042 20.8331 41.0816 20.418C41.1883 20.1499 41.3366 19.9075 41.5189 19.7031C41.9238 19.2489 42.4456 18.9652 43.0025 18.8965C43.6172 18.7743 44.2157 18.5586 44.7829 18.255C45.4857 17.87 46.782 17.1918 46.8601 16.2019C46.8849 16.0382 46.8849 15.8707 46.8601 15.707C46.818 15.5911 46.7963 15.4664 46.7963 15.3404C46.7963 15.2144 46.818 15.0897 46.8601 14.9738C47.0944 14.4422 47.7815 14.2589 48.9685 14.4238C48.9946 14.426 49.0201 14.4345 49.0432 14.4489C49.0664 14.4633 49.0867 14.4832 49.1029 14.5074C49.1191 14.5316 49.1308 14.5595 49.1372 14.5893C49.1436 14.6191 49.1447 14.6502 49.1403 14.6805C49.1383 14.7094 49.1315 14.7376 49.1202 14.7634C49.1089 14.7892 49.0934 14.8121 49.0745 14.8309C49.0556 14.8496 49.0338 14.8638 49.0102 14.8726C48.9867 14.8814 48.9619 14.8846 48.9372 14.8821C47.6254 14.6988 47.2818 14.9921 47.2037 15.1937C47.1256 15.3954 47.2037 15.3954 47.2037 15.597C47.2468 15.8079 47.2468 16.0277 47.2037 16.2386C47.11 17.4851 45.72 18.2366 44.8923 18.6582C44.3 18.9807 43.6757 19.2147 43.0338 19.3548C42.5514 19.3932 42.0969 19.6339 41.7532 20.0331C41.5992 20.2006 41.4723 20.3993 41.3783 20.6196C41.1953 21.0677 40.9644 21.4866 40.6912 21.8661C40.2531 22.5668 39.7264 23.185 39.1294 23.6992C38.7308 24.0209 38.2866 24.2568 37.8175 24.3958C37.5077 24.4511 37.2222 24.6251 37.0054 24.8907C36.6081 25.6644 36.3726 26.5376 36.3182 27.4387C36.1355 28.6482 36.0831 29.8799 36.1621 31.1048C36.5562 33.7355 37.6887 36.1358 39.3793 37.9238C39.4156 37.9682 39.4358 38.0273 39.4358 38.0888C39.4358 38.1503 39.4156 38.2094 39.3793 38.2538C39.3688 38.2973 39.3462 38.3354 39.315 38.362C39.2839 38.3886 39.246 38.4022 39.2075 38.4004Z" fill="white"/>
<path d="M38.2347 22.437C38.1915 22.4424 38.1481 22.4284 38.1133 22.3978C38.0785 22.3672 38.055 22.3222 38.0473 22.272C38.0401 22.2443 38.0376 22.2152 38.0399 22.1864C38.0423 22.1576 38.0495 22.1296 38.0611 22.1041C38.0727 22.0785 38.0885 22.0559 38.1076 22.0375C38.1267 22.0192 38.1486 22.0054 38.1722 21.997C38.7634 21.8099 39.3021 21.4432 39.734 20.9338C40.0032 20.5679 40.2291 20.1609 40.4055 19.724C40.549 19.3727 40.659 19.0038 40.7335 18.6242C40.7764 18.3191 40.8898 18.0338 41.0615 17.7993C41.2377 17.5825 41.4669 17.4352 41.7174 17.3777C41.9204 17.286 42.2016 17.176 42.6545 16.9377C43.144 16.7301 43.6025 16.4332 44.0132 16.0579C44.4295 15.5119 44.6674 14.8105 44.6848 14.0782C44.6847 14.0477 44.69 14.0175 44.7003 13.9895C44.7107 13.9616 44.726 13.9364 44.7451 13.9158C44.7641 13.8951 44.7867 13.8793 44.8113 13.8694C44.8358 13.8595 44.8619 13.8556 44.8878 13.8582C44.9376 13.8665 44.9835 13.8948 45.0176 13.9382C45.0518 13.9816 45.0721 14.0375 45.0752 14.0965C45.0562 14.9486 44.773 15.7633 44.2787 16.3878C43.8404 16.8081 43.3438 17.1367 42.8106 17.3594C42.4959 17.5292 42.1725 17.6761 41.8424 17.7993C41.6565 17.8391 41.4867 17.9484 41.3582 18.1109C41.226 18.2864 41.1393 18.5027 41.1083 18.7342C41.0343 19.1425 40.9135 19.5371 40.7491 19.9073C40.5629 20.3898 40.3212 20.8401 40.0307 21.2455C39.5589 21.8154 38.9657 22.2268 38.3128 22.437H38.2347Z" fill="white"/>
<path d="M65.3311 21.2106C65.2852 21.209 65.2408 21.1904 65.2044 21.1575C65.1679 21.1246 65.1412 21.079 65.1281 21.0273C65.0035 20.3226 64.8041 19.6391 64.5346 18.9926C64.0298 17.4661 63.0619 16.2125 61.8172 15.4731C60.785 15.2457 59.7258 15.2457 58.6937 15.4731C57.6004 15.4731 56.4916 15.6381 55.4296 15.7481C55.4038 15.7533 55.3773 15.752 55.3519 15.7445C55.3265 15.7369 55.3027 15.7232 55.2821 15.7042C55.2615 15.6852 55.2445 15.6614 55.2323 15.6342C55.22 15.607 55.2128 15.5771 55.2109 15.5464C55.2104 15.4843 55.2291 15.424 55.2636 15.3768C55.298 15.3296 55.3459 15.2987 55.3984 15.2898C56.4395 15.1798 57.5328 15.0881 58.6781 15.0148C61.1612 14.8682 61.5205 15.0148 61.8016 15.1248C63.1258 15.8841 64.1654 17.1892 64.722 18.791C65.0046 19.4684 65.2194 20.1819 65.3624 20.9173C65.3717 20.978 65.3606 21.0405 65.3315 21.0917C65.3024 21.143 65.2575 21.179 65.2062 21.1923L65.3311 21.2106Z" fill="white"/>
<path d="M65.438 27.9733C65.4114 27.971 65.3853 27.9625 65.3614 27.9484C65.3375 27.9342 65.3163 27.9146 65.2989 27.8908C65.2815 27.8669 65.2682 27.8393 65.2599 27.8094C65.2517 27.7795 65.2485 27.748 65.2506 27.7167C65.2506 26.9651 65.3912 26.2136 65.4068 25.4437C65.4224 24.6738 65.4068 24.0872 65.4068 23.4273C65.4063 23.3652 65.425 23.3049 65.4594 23.2577C65.4939 23.2105 65.5418 23.1796 65.5942 23.1707C65.6201 23.1681 65.6462 23.172 65.6708 23.1819C65.6953 23.1918 65.7179 23.2076 65.737 23.2283C65.756 23.2489 65.7713 23.2741 65.7817 23.302C65.792 23.33 65.7973 23.3602 65.7972 23.3907C65.7972 24.0689 65.7972 24.7655 65.7972 25.462C65.7972 26.1586 65.7192 27.0201 65.6411 27.7717C65.6336 27.8284 65.6089 27.8799 65.5716 27.917C65.5343 27.954 65.4869 27.974 65.438 27.9733Z" fill="white"/>
<path d="M57.2057 42.1582C57.1586 42.1584 57.1132 42.1378 57.0784 42.1004C57.0437 42.063 57.0222 42.0117 57.0183 41.9566C57.0139 41.9263 57.0149 41.8952 57.0214 41.8654C57.0278 41.8356 57.0395 41.8077 57.0557 41.7835C57.0718 41.7593 57.0922 41.7394 57.1154 41.725C57.1385 41.7106 57.164 41.7021 57.1901 41.7C59.0969 41.5291 60.9684 41.0032 62.7344 40.1418C63.6713 39.705 64.5579 39.1323 65.3737 38.4371C66.4225 37.6508 67.2402 36.5054 67.7164 35.1559C67.8719 34.2823 67.9348 33.3896 67.9038 32.4979V31.9663C67.9038 30.7015 67.9038 29.7666 67.9038 28.6668C67.9038 26.8337 67.7944 26.0089 67.7007 25.3123C67.4684 23.8277 67.0193 22.4014 66.3733 21.0962C66.3503 21.0423 66.3456 20.9802 66.3601 20.9224C66.3745 20.8645 66.4072 20.8153 66.4513 20.7846C66.4675 20.7616 66.4877 20.743 66.5107 20.7303C66.5336 20.7175 66.5587 20.7109 66.5841 20.7109C66.6095 20.7109 66.6346 20.7175 66.6575 20.7303C66.6805 20.743 66.7007 20.7616 66.7168 20.7846C67.3899 22.1309 67.8502 23.6089 68.0756 25.1473C68.201 26.2722 68.274 27.4043 68.2942 28.5385C68.2942 29.6567 68.3723 30.6099 68.2942 31.893V32.4063C68.3315 33.3475 68.2632 34.2905 68.0912 35.2109C67.5884 36.644 66.7212 37.8602 65.608 38.6937C64.783 39.4567 63.8675 40.0742 62.8905 40.5268C61.0845 41.4069 59.171 41.9452 57.2214 42.1216L57.2057 42.1582Z" fill="white"/>
<path d="M66.7113 38.8621C66.6752 38.8625 66.6398 38.8505 66.6093 38.8278C66.5788 38.805 66.5546 38.7724 66.5395 38.7338C66.5265 38.7065 66.5186 38.6763 66.5163 38.6452C66.514 38.614 66.5175 38.5826 66.5263 38.5531C66.5352 38.5236 66.5493 38.4967 66.5677 38.4741C66.5862 38.4516 66.6085 38.4339 66.6332 38.4222C66.906 38.2678 67.1628 38.0772 67.3985 37.854C67.9349 37.3341 68.3534 36.6666 68.6167 35.9109C68.8102 35.364 68.9465 34.7915 69.0227 34.2061C69.1481 33.3961 69.2004 32.5728 69.1789 31.7498C69.1603 30.8803 69.0714 30.0149 68.9134 29.1652C68.6323 27.4604 68.3824 25.499 68.1794 23.2627C68.1915 23.2129 68.2171 23.1691 68.2523 23.1379C68.2875 23.1067 68.3305 23.0898 68.3746 23.0898C68.4187 23.0898 68.4616 23.1067 68.4968 23.1379C68.5321 23.1691 68.5577 23.2129 68.5698 23.2627C68.7728 25.4807 69.0071 27.4421 69.2882 29.0919C69.4515 29.9844 69.5456 30.8924 69.5693 31.8048C69.5908 32.6521 69.5385 33.4997 69.4131 34.3344C69.3335 34.9646 69.1866 35.5805 68.9759 36.1675C68.6868 36.9922 68.2312 37.7219 67.6484 38.2939C67.3834 38.5397 67.0952 38.7489 66.7894 38.9171L66.7113 38.8621Z" fill="white"/>
<path d="M69.2987 36.9155C69.2594 36.9141 69.2213 36.8995 69.189 36.8732C69.1567 36.8469 69.1316 36.8102 69.1167 36.7675C69.1018 36.7248 69.0978 36.678 69.1052 36.6326C69.1125 36.5873 69.1309 36.5455 69.1582 36.5122C69.2744 36.3714 69.379 36.2179 69.4705 36.0539C69.7296 35.5804 69.9048 35.0505 69.9859 34.4958C70.033 34.2428 70.0592 33.9849 70.064 33.7259V33.2677C70.064 32.5161 70.1577 32.1128 70.2046 31.8195C70.2514 31.5262 70.2046 31.3613 70.2046 31.013C70.2244 30.3456 70.1983 29.6774 70.1265 29.0149C70.0033 27.9025 69.762 26.8125 69.408 25.7704C69.3885 25.7418 69.3748 25.7083 69.3681 25.6725C69.3613 25.6368 69.3617 25.5996 69.3692 25.564C69.3767 25.5285 69.391 25.4954 69.4112 25.4674C69.4313 25.4394 69.4567 25.4172 69.4854 25.4026C69.514 25.388 69.5451 25.3813 69.5763 25.3831C69.6075 25.3849 69.6379 25.3951 69.6652 25.413C69.6925 25.4308 69.7159 25.4558 69.7336 25.486C69.7513 25.5162 69.7628 25.5508 69.7672 25.5871C70.1388 26.6692 70.3908 27.8027 70.5169 28.9599C70.5885 29.647 70.6147 30.3395 70.595 31.0313C70.595 31.3979 70.595 31.5812 70.5169 31.8745C70.4388 32.1678 70.5169 32.5528 70.392 33.3043V33.7626C70.3858 34.0396 70.3597 34.3156 70.3139 34.5875C70.2219 35.2016 70.0254 35.7876 69.736 36.3106C69.6244 36.5002 69.499 36.678 69.3612 36.8422C69.3456 36.8721 69.3242 36.8972 69.2987 36.9155Z" fill="white"/>
<path d="M70.7905 36.2201C70.6187 36.2201 70.5718 36.0184 70.6187 35.8901C70.7959 35.3697 70.9267 34.8291 71.0091 34.277C71.0778 33.8544 71.104 33.4237 71.0872 32.9939C71.0872 32.6639 71.0872 32.2423 71.0872 31.6374C71.0872 31.0325 71.0872 30.8308 71.0872 30.5559C71.1282 30.1663 71.1282 29.7723 71.0872 29.3827C71.0249 28.8276 70.8988 28.285 70.7124 27.7696C70.6963 27.7135 70.6986 27.6524 70.7188 27.5982C70.739 27.544 70.7757 27.5005 70.8217 27.4763C70.8448 27.4613 70.8705 27.4528 70.8968 27.4514C70.9232 27.45 70.9495 27.4557 70.9736 27.4681C70.9978 27.4805 71.0192 27.4993 71.0362 27.5229C71.0532 27.5466 71.0653 27.5746 71.0716 27.6046C71.2683 28.1502 71.4048 28.7231 71.4776 29.3094C71.5179 29.7297 71.5179 30.1539 71.4776 30.5742C71.4776 30.8308 71.4776 31.1791 71.4776 31.6374C71.4776 32.0957 71.4776 32.6639 71.4776 32.9755C71.4926 33.4418 71.4665 33.9087 71.3996 34.3687C71.3063 34.9516 71.1651 35.5225 70.9779 36.0734C70.9625 36.1169 70.9364 36.154 70.9031 36.18C70.8697 36.2061 70.8305 36.2201 70.7905 36.2201Z" fill="white"/>
<path d="M72.1165 34.9205C71.9447 34.9205 71.8823 34.7189 71.9291 34.6089C72.0516 34.2266 72.1507 33.8345 72.2258 33.4357C72.3318 32.8761 72.3842 32.3043 72.382 31.731C72.3678 31.0555 72.2839 30.3846 72.1321 29.7329C72.1249 29.7052 72.1224 29.6761 72.1248 29.6473C72.1272 29.6185 72.1344 29.5905 72.146 29.565C72.1576 29.5394 72.1734 29.5168 72.1924 29.4985C72.2115 29.4801 72.2335 29.4663 72.2571 29.458C72.3089 29.441 72.3642 29.4489 72.4111 29.4798C72.4579 29.5107 72.4924 29.5622 72.507 29.6229C72.6738 30.3089 72.7631 31.0177 72.7725 31.731C72.7777 32.3469 72.7253 32.9616 72.6163 33.564C72.5379 33.9899 72.4281 34.4069 72.2883 34.8105C72.2711 34.8457 72.2459 34.8745 72.2156 34.8939C72.1853 34.9133 72.151 34.9225 72.1165 34.9205Z" fill="white"/>
<path d="M36.8449 37.939C36.8043 37.9544 36.7605 37.9544 36.7199 37.939C36.3954 37.6287 36.1113 37.2643 35.8766 36.8575C35.4389 36.0145 35.1421 35.0813 35.002 34.1079C34.877 33.5763 34.7677 33.008 34.6428 32.2748C34.47 30.9835 34.3916 29.6773 34.4085 28.3704C34.4156 28.3119 34.4397 28.258 34.4767 28.218C34.5137 28.1779 34.5613 28.154 34.6115 28.1504C34.6375 28.1503 34.6632 28.1565 34.6871 28.1687C34.7109 28.1809 34.7323 28.1987 34.7499 28.2212C34.7675 28.2436 34.781 28.27 34.7894 28.2989C34.7979 28.3277 34.8011 28.3583 34.7989 28.3887C34.7826 29.6652 34.861 30.9409 35.0332 32.2015C35.1425 32.9897 35.2675 33.5396 35.3768 34.0346C35.5205 34.9525 35.8007 35.8336 36.2045 36.6375C36.417 37.0096 36.6749 37.3431 36.9698 37.6274C37.0056 37.6544 37.0325 37.6948 37.0461 37.7421C37.0597 37.7894 37.0591 37.8407 37.0446 37.8876C37.0301 37.9345 37.0024 37.9742 36.9661 38.0002C36.9298 38.0262 36.8871 38.037 36.8449 38.0307V37.939Z" fill="white"/>
<path d="M34.5872 36.1768C34.5532 36.1754 34.52 36.1648 34.4902 36.1457C34.4604 36.1266 34.4347 36.0996 34.4154 36.0669C34.1925 35.6051 33.9943 35.1276 33.8219 34.6371C33.5446 33.7881 33.3609 32.9011 33.2753 31.9974C33.1895 31.1756 33.1895 30.3446 33.2753 29.5228C33.2897 29.4647 33.3211 29.4145 33.3639 29.381C33.4068 29.3475 33.4583 29.3328 33.5095 29.3395C33.5343 29.3439 33.5581 29.3541 33.5794 29.3695C33.6008 29.3849 33.6193 29.4052 33.6338 29.4291C33.6484 29.453 33.6587 29.4801 33.6642 29.5088C33.6697 29.5375 33.6702 29.5672 33.6657 29.5961C33.5801 30.375 33.5801 31.1636 33.6657 31.9425C33.7425 32.8044 33.9212 33.6497 34.1967 34.4538C34.3492 34.9306 34.5374 35.3907 34.7589 35.8286C34.7819 35.8825 34.7866 35.9446 34.7721 36.0024C34.7577 36.0602 34.725 36.1095 34.6809 36.1402L34.5872 36.1768Z" fill="white"/>
<path d="M32.6273 34.9174H32.518C32.1552 34.3955 31.9372 33.7559 31.8933 33.0843C31.8185 32.41 31.9051 31.7246 32.1432 31.1046C32.1495 31.0746 32.1616 31.0466 32.1786 31.0229C32.1956 30.9993 32.217 30.9805 32.2411 30.9681C32.2653 30.9557 32.2916 30.95 32.3179 30.9514C32.3443 30.9528 32.37 30.9613 32.393 30.9763C32.4427 31.0006 32.4822 31.0471 32.5027 31.1055C32.5232 31.164 32.5231 31.2296 32.5024 31.2879C32.2922 31.8265 32.2164 32.4239 32.2837 33.011C32.3187 33.3193 32.3869 33.6211 32.4868 33.9092C32.5302 33.8981 32.5756 33.9071 32.6135 33.9345C32.6513 33.9618 32.6787 34.0053 32.6898 34.0559C32.846 34.5508 32.8928 34.7524 32.6898 34.8441L32.6273 34.9174Z" fill="white"/>
<path d="M53.5314 42.8042C52.7801 42.7884 52.0361 42.6274 51.3294 42.3276C50.93 42.1862 50.5387 42.0148 50.1581 41.8143L49.8457 41.6494C48.8506 41.2062 47.7796 41.0491 46.7222 41.1911H46.0506C44.1668 41.1159 42.3429 40.3959 40.8031 39.1197C40.7725 39.0804 40.754 39.0302 40.7506 38.9771C40.7471 38.924 40.7589 38.8711 40.7841 38.8268C40.8093 38.7825 40.8463 38.7494 40.8894 38.7327C40.9325 38.716 40.9791 38.7168 41.0218 38.7348C42.4972 39.9624 44.2437 40.6627 46.0506 40.7512H46.7847C47.8907 40.6092 49.0097 40.7788 50.0487 41.2461L50.3767 41.4111C50.7431 41.6067 51.1185 41.7781 51.5012 41.9243C52.2582 42.2367 53.0572 42.3857 53.8594 42.3643C54.4784 42.3262 55.0867 42.1586 55.6554 41.8693C55.7032 41.8505 55.7553 41.8532 55.8015 41.8769C55.8477 41.9006 55.8847 41.9437 55.9053 41.9977C55.918 42.0261 55.9252 42.0575 55.9265 42.0896C55.9277 42.1217 55.923 42.1537 55.9126 42.1834C55.9022 42.2131 55.8863 42.2397 55.8662 42.2615C55.846 42.2832 55.8221 42.2995 55.796 42.3093C55.1878 42.5967 54.5448 42.7699 53.8907 42.8225L53.5314 42.8042Z" fill="white"/>
<path d="M42.3776 18.5301C42.3296 18.5274 42.2837 18.5061 42.247 18.4697C42.2103 18.4332 42.1848 18.3836 42.1746 18.3285C42.1701 18.2981 42.1712 18.2671 42.1776 18.2373C42.1841 18.2075 42.1957 18.1795 42.2119 18.1554C42.2281 18.1312 42.2484 18.1113 42.2716 18.0969C42.2948 18.0825 42.3202 18.0739 42.3464 18.0718C43.1435 17.9346 43.891 17.534 44.5016 16.917C45.1309 16.2857 45.5873 15.4503 45.8135 14.5157C45.8206 14.488 45.8323 14.4622 45.848 14.4398C45.8636 14.4174 45.8829 14.3989 45.9047 14.3853C45.9264 14.3716 45.9503 14.3632 45.9748 14.3604C45.9994 14.3576 46.0242 14.3605 46.0477 14.369C46.0728 14.3754 46.0964 14.3877 46.1172 14.4052C46.138 14.4227 46.1555 14.445 46.1687 14.4708C46.1819 14.4966 46.1904 14.5252 46.1938 14.555C46.1971 14.5848 46.1953 14.6151 46.1883 14.644C45.9377 15.6461 45.4492 16.5438 44.7799 17.232C44.1106 17.9202 43.2882 18.3704 42.4088 18.5301H42.3776Z" fill="white"/>
<path d="M50.7104 53.4919C50.7104 53.6225 50.6774 53.75 50.6157 53.8586C50.5539 53.9671 50.4661 54.0517 50.3633 54.1016C50.2606 54.1516 50.1475 54.1646 50.0385 54.1392C49.9294 54.1137 49.8292 54.0509 49.7506 53.9586C49.672 53.8663 49.6184 53.7487 49.5967 53.6207C49.575 53.4927 49.5862 53.36 49.6287 53.2394C49.6713 53.1188 49.7433 53.0158 49.8358 52.9432C49.9283 52.8707 50.037 52.832 50.1482 52.832C50.2973 52.832 50.4403 52.9016 50.5457 53.0253C50.6512 53.1491 50.7104 53.3169 50.7104 53.4919Z" fill="#3F469A"/>
<path d="M53.312 53.4919C53.312 53.6225 53.279 53.75 53.2172 53.8586C53.1554 53.9671 53.0676 54.0517 52.9649 54.1016C52.8621 54.1516 52.7491 54.1646 52.64 54.1392C52.531 54.1137 52.4308 54.0509 52.3522 53.9586C52.2735 53.8663 52.22 53.7487 52.1983 53.6207C52.1766 53.4927 52.1878 53.36 52.2303 53.2394C52.2729 53.1188 52.3449 53.0158 52.4374 52.9432C52.5298 52.8707 52.6385 52.832 52.7497 52.832C52.8989 52.832 53.0419 52.9016 53.1473 53.0253C53.2527 53.1491 53.312 53.3169 53.312 53.4919Z" fill="#3F469A"/>
<path d="M55.9838 53.4919C55.9838 53.6225 55.9509 53.75 55.8891 53.8586C55.8273 53.9671 55.7395 54.0517 55.6368 54.1016C55.534 54.1516 55.421 54.1646 55.3119 54.1392C55.2029 54.1137 55.1027 54.0509 55.024 53.9586C54.9454 53.8663 54.8919 53.7487 54.8702 53.6207C54.8485 53.4927 54.8596 53.36 54.9022 53.2394C54.9447 53.1188 55.0168 53.0158 55.1092 52.9432C55.2017 52.8707 55.3104 52.832 55.4216 52.832C55.5707 52.832 55.7137 52.9016 55.8192 53.0253C55.9246 53.1491 55.9838 53.3169 55.9838 53.4919Z" fill="#3F469A"/>
<path d="M65.4315 65.5523C65.3854 65.5487 65.3417 65.5268 65.3076 65.4902C65.2735 65.4535 65.2511 65.4043 65.2441 65.3506C65.1281 64.0925 65.3176 62.8216 65.7907 61.6845C66.3604 60.4722 67.2632 59.5224 68.352 58.9899C69.4244 58.4107 70.358 57.5291 71.0695 56.4236C71.5465 55.609 71.9249 54.7206 72.1939 53.7839C72.5219 52.7758 72.7874 51.9509 73.5371 51.8042C73.7645 51.7768 73.9944 51.805 74.2121 51.887C74.4298 51.9691 74.6307 52.1031 74.8021 52.2808C75.1144 52.5375 75.3799 52.7758 75.7548 52.6658C76.1296 52.5558 76.5044 51.9142 76.8011 51.0893C77.0629 50.0127 77.6592 49.0904 78.4722 48.5047C79.503 47.8631 81.0335 47.8814 81.5957 48.8346C82.158 49.7878 81.3927 51.0343 81.2521 51.291C81.2347 51.3115 81.214 51.3277 81.1913 51.3388C81.1685 51.3499 81.1441 51.3557 81.1194 51.3557C81.0947 51.3557 81.0703 51.3499 81.0475 51.3388C81.0247 51.3277 81.0041 51.3115 80.9866 51.291C80.9548 51.2477 80.9372 51.1924 80.9372 51.1352C80.9372 51.0779 80.9548 51.0226 80.9866 50.9793C80.9866 50.9793 81.6894 49.7145 81.3302 49.018C80.971 48.3214 79.6279 48.3397 78.7846 48.853C78.0322 49.3867 77.4756 50.2294 77.2228 51.2176C76.9105 52.0792 76.6137 52.9041 75.8953 53.0507C75.6687 53.0877 75.438 53.0659 75.2194 52.9867C75.0008 52.9075 74.7997 52.7729 74.6303 52.5924C74.5014 52.4504 74.3488 52.3412 74.1821 52.2718C74.0155 52.2024 73.8384 52.1743 73.662 52.1892C73.1622 52.2808 72.9592 52.8307 72.6312 53.8756C72.3462 54.8466 71.9467 55.766 71.4443 56.6069C70.7035 57.7743 69.7266 58.7067 68.6019 59.3198C67.5783 59.8079 66.729 60.6947 66.1968 61.8311C65.7544 62.9007 65.581 64.0962 65.697 65.2773C65.6976 65.3395 65.6789 65.3998 65.6444 65.447C65.6099 65.4942 65.5621 65.5251 65.5096 65.534L65.4315 65.5523Z" fill="#122275"/>
<path d="M93.1357 65.2077L85.5299 68.5439C84.5928 66.2159 83.6402 63.9062 82.6875 61.5782L85.077 58.3887L93.1357 65.2077Z" fill="#122275"/>
<path d="M83.895 61.6264C82.9421 61.6323 81.9923 61.4968 81.0682 61.2231C79.5937 60.7673 78.2232 59.9348 77.0545 58.7851C76.5548 55.9439 77.0545 53.7442 78.1009 53.2859C78.4934 53.1372 78.9201 53.1767 79.2878 53.3959L82.833 53.9275C83.5427 54.1975 84.1465 54.7567 84.5354 55.5039C84.7232 55.9945 84.8545 56.5124 84.9258 57.0437C85.1444 57.9969 85.3631 58.7668 85.5349 59.2984L83.895 61.6264Z" fill="#122275"/>
<path d="M72.8746 102.598L80.0587 103.918L93.7553 83.9005C92.4916 82.6412 91.0825 81.5983 89.5698 80.8026C87.3264 79.7314 84.9452 79.1117 82.5263 78.9695C79.4027 78.6029 76.2792 77.998 73.1557 77.8147C69.1264 77.558 62.8481 76.2016 53.134 71.1973L40.8429 78.9512C39.377 80.5695 37.4784 81.5412 35.4705 81.7008C35.0809 81.7446 34.6887 81.7446 34.2992 81.7008C33.3936 81.3805 32.5618 80.8231 31.8666 80.0705C31.1713 79.3179 30.6307 78.3899 30.2855 77.3564C28.9589 76.7806 27.511 76.7135 26.1499 77.1647C24.7888 77.616 23.5848 78.5624 22.7109 79.8677C27.968 84.858 33.4527 89.5087 39.1406 93.7991C40.2831 94.5558 41.4615 95.2352 42.6702 95.8338C43.8692 96.3925 45.0946 96.8698 46.3403 97.2636C52.1188 99.2066 54.9612 98.1251 60.8803 98.9317C65.0017 99.5089 69.0368 100.742 72.8746 102.598Z" fill="#FF8C64"/>
<path d="M53.5443 83.4631C56.5114 83.4631 58.9167 80.6399 58.9167 77.1573C58.9167 73.6748 56.5114 70.8516 53.5443 70.8516C50.5772 70.8516 48.1719 73.6748 48.1719 77.1573C48.1719 80.6399 50.5772 83.4631 53.5443 83.4631Z" fill="#FF8C64"/>
<path d="M84.0178 104.902C90.624 104.902 95.9652 99.2016 95.9652 92.1993C95.9652 85.197 90.624 79.4961 84.0178 79.4961C77.4115 79.4961 72.0547 85.1786 72.0547 92.1993C72.0547 99.22 77.4115 104.902 84.0178 104.902Z" fill="#FF8C64"/>
<path d="M102.554 81.0448V103.243C102.419 103.261 102.283 103.261 102.148 103.243C98.9458 103.393 95.7414 103.036 92.6209 102.18L84.0625 80.9531C90.2144 80.2858 96.4068 80.3165 102.554 81.0448Z" fill="#FF8C64"/>
<path d="M23.9393 81.0259C25.5315 80.5281 27.0962 79.9159 28.6245 79.1929C29.8574 78.6131 30.99 77.7745 31.9667 76.7182C32.1753 76.5293 32.3482 76.2917 32.4745 76.0203C32.6008 75.749 32.6779 75.4498 32.7007 75.1418C32.7003 74.8463 32.639 74.5552 32.5221 74.2935C32.4052 74.0318 32.236 73.8071 32.0292 73.6387C31.9934 73.5138 31.9934 73.3786 32.0292 73.2537C32.1229 73.0154 32.404 73.0154 32.4977 72.6855C32.5452 72.5276 32.5496 72.3564 32.5104 72.1954C32.4713 72.0345 32.3904 71.8918 32.279 71.7873C32.1536 71.7291 32.014 71.7291 31.8886 71.7873C31.9856 71.6237 32.0489 71.4358 32.0733 71.2385C32.0977 71.0412 32.0826 70.84 32.0292 70.6508C31.9917 70.5552 31.9377 70.47 31.8704 70.4005C31.8031 70.331 31.7242 70.2789 31.6387 70.2475C31.3879 70.1646 31.1426 70.0604 30.9047 69.9359C29.5328 69.2676 28.4201 68.027 27.7812 66.453C27.6804 66.0902 27.5605 65.7351 27.422 65.3898C27.3506 65.1994 27.2671 65.0156 27.1721 64.8399C26.6616 63.8321 25.9685 62.9685 25.1418 62.3103C23.9836 61.329 22.6567 60.6566 21.2539 60.34C19.8511 60.0233 18.4064 60.0702 17.0207 60.4772C13.5379 61.687 9.71166 66.233 10.352 71.2373C10.9923 76.2416 15.9587 79.4862 18.52 79.4312C20.4189 79.2869 22.3087 79.8446 23.9237 81.0259H23.9393Z" fill="#FF8C64"/>
<path d="M30.4128 69.9866C30.4396 69.7407 30.5087 69.5037 30.6158 69.29C30.7564 69.0151 30.8969 68.9967 30.9906 68.7218C31.0469 68.513 31.0469 68.2889 30.9906 68.0802C30.9496 67.8421 30.8392 67.6282 30.6783 67.4753C30.4244 67.2992 30.1238 67.2404 29.835 67.3103C29.1043 67.3163 28.3861 67.0882 27.7578 66.6504L28.7105 68.6668L30.4128 69.9866Z" fill="#FF8C64"/>
<path d="M25.496 68.8638C25.4638 68.8645 25.4321 68.8545 25.4045 68.8351C25.3769 68.8156 25.3545 68.7875 25.3398 68.7538C25.1646 68.4231 25.0554 68.0501 25.0202 67.6629C24.9851 67.2756 25.0249 66.8841 25.1368 66.5174C25.2652 66.1869 25.4489 65.8901 25.677 65.6445C25.905 65.3989 26.1727 65.2095 26.4643 65.0876C26.4874 65.0727 26.5131 65.0641 26.5394 65.0627C26.5658 65.0613 26.592 65.067 26.6162 65.0794C26.6404 65.0918 26.6618 65.1106 26.6788 65.1343C26.6958 65.1579 26.7079 65.1859 26.7142 65.216C26.7242 65.2435 26.7293 65.2732 26.7291 65.3032C26.729 65.3332 26.7237 65.3628 26.7134 65.3903C26.7032 65.4178 26.6883 65.4425 26.6696 65.4629C26.6509 65.4834 26.6289 65.4991 26.6048 65.5092C26.1174 65.7124 25.7186 66.1344 25.496 66.6824C25.4078 66.9839 25.3774 67.3046 25.4071 67.6215C25.4368 67.9384 25.5258 68.2437 25.6678 68.5155C25.6853 68.5359 25.6991 68.5602 25.7086 68.5869C25.718 68.6137 25.7229 68.6423 25.7229 68.6713C25.7229 68.7002 25.718 68.7289 25.7086 68.7556C25.6991 68.7824 25.6853 68.8067 25.6678 68.8271L25.496 68.8638Z" fill="#122275"/>
<path d="M25.644 66.7268C25.8626 67.2767 26.3155 67.5883 26.6591 67.405C26.8316 67.2545 26.9497 67.0336 26.9902 66.7858C27.0306 66.5381 26.9905 66.2816 26.8777 66.0669C26.6591 65.5169 26.2218 65.2053 25.8782 65.3886C25.7002 65.5336 25.5765 65.7535 25.5329 66.0027C25.4893 66.2518 25.529 66.5111 25.644 66.7268Z" fill="#122275"/>
<path d="M31.2024 71.5302C31.0306 71.9152 30.6401 72.3551 29.6406 72.5567C30.0542 72.6918 30.4922 72.6841 30.9021 72.5345C31.312 72.385 31.6766 72.0999 31.952 71.7135C31.952 71.7135 32.3112 70.9253 31.952 70.4304C31.8583 70.2654 31.6397 70.0454 31.4679 70.1004C31.2961 70.1554 31.4366 70.9436 31.2024 71.5302Z" fill="#EA522F"/>
<path d="M23.5703 63.3788C23.6717 63.2889 23.7879 63.2245 23.9115 63.1898C24.0352 63.1551 24.1636 63.1508 24.2887 63.1772C24.383 63.2109 24.4684 63.2724 24.5368 63.3559C24.6051 63.4393 24.6541 63.5418 24.6792 63.6538L23.5703 63.3788Z" fill="#122275"/>
<path d="M23.4616 63.3594L23.9926 63.5244C24.3362 63.6343 24.4299 63.5243 24.4299 63.671C24.4299 63.8176 23.4304 64.6242 22.4933 65.7607C21.9528 66.4231 21.5001 67.1769 21.1502 67.997C21.127 67.7841 21.127 67.5685 21.1502 67.3555C21.49 65.7425 22.3097 64.3252 23.4616 63.3594Z" fill="#122275"/>
<path d="M31.4198 73.815C31.385 73.8193 31.35 73.8111 31.3193 73.7915C31.2886 73.7718 31.2637 73.7417 31.248 73.705C31.225 73.6511 31.2203 73.589 31.2348 73.5311C31.2493 73.4733 31.2819 73.4241 31.3261 73.3934L31.8727 73.0267C31.9096 72.9893 31.9567 72.9688 32.0055 72.9688C32.0542 72.9688 32.1013 72.9893 32.1382 73.0267C32.1701 73.07 32.1876 73.1253 32.1876 73.1826C32.1876 73.2398 32.1701 73.2951 32.1382 73.3384L31.5916 73.705L31.4198 73.815Z" fill="#EA522F"/>
<path d="M74.28 99.1842C84.8115 99.1842 93.3491 90.8213 93.3491 80.5052C93.3491 70.189 84.8115 61.8262 74.28 61.8262C63.7484 61.8262 55.2109 70.189 55.2109 80.5052C55.2109 90.8213 63.7484 99.1842 74.28 99.1842Z" fill="#FF8C64"/>
<path d="M46.035 105.112L6.33513 86.03C5.65932 85.7281 5.04183 85.2704 4.51903 84.6841C3.99623 84.0977 3.57871 83.3945 3.29104 82.6158C3.00338 81.8371 2.85138 80.9987 2.84403 80.15C2.83668 79.3013 2.97412 78.4595 3.24824 77.6741C3.52236 76.8887 3.92762 76.1757 4.44015 75.577C4.95268 74.9782 5.56213 74.506 6.23256 74.188C6.903 73.87 7.62087 73.7127 8.3439 73.7253C9.06693 73.738 9.7805 73.9203 10.4426 74.2617L50.1424 93.344C51.4368 94.0113 52.4578 95.2459 52.9875 96.7844C53.5172 98.3229 53.5137 100.043 52.9777 101.579C52.4418 103.114 51.4159 104.343 50.1188 105.003C48.8218 105.664 47.3563 105.703 46.035 105.112Z" fill="#FFC5D2"/>
<path d="M94.7344 94.418H52.8481C48.8028 94.418 45.5234 98.267 45.5234 103.015V113.977C45.5234 118.725 48.8028 122.574 52.8481 122.574H94.7344C98.7797 122.574 102.059 118.725 102.059 113.977V103.015C102.059 98.267 98.7797 94.418 94.7344 94.418Z" fill="#FFC5D2"/>
<path d="M17.5741 78.3117C13.701 76.6436 11.7644 75.8187 10.8898 74.4805C9.12504 71.7493 9.76537 67.1482 11.5302 64.0503C12.6433 62.4877 14.0737 61.2791 15.6895 60.5358C17.3052 59.7926 19.0544 59.5388 20.7758 59.7976C20.9992 59.7857 21.2222 59.8303 21.4296 59.9284C21.6371 60.0264 21.8242 60.1756 21.9783 60.3659C22.4312 61.1541 21.5254 62.0523 21.2755 63.7937C20.8538 66.8 22.8373 69.0363 21.8534 70.5394C21.7783 70.6464 21.6947 70.7447 21.6035 70.8327C22.734 72.2812 24.1496 73.3826 25.7265 74.0406C27.788 74.8472 28.4127 74.1506 30.2868 74.9021C32.5218 75.9964 34.3841 77.9306 35.5812 80.4014C35.8936 80.933 38.408 85.2407 37.5022 86.3405C37.1742 86.7255 36.487 86.6338 32.2547 84.6908C30.3181 83.8109 28.7407 83.0227 27.6631 82.4911C25.9296 81.6662 23.6182 80.658 20.8538 79.5398C19.3389 79.0082 18.8392 78.8433 17.5741 78.3117Z" fill="#3F469A"/>
<path d="M101.499 95.2991L106.575 101.477L90.5509 118.561C89.5626 116.992 88.7735 115.263 88.2083 113.428C87.4548 110.733 87.1008 107.905 87.1619 105.069C87.0526 101.403 86.7715 97.7371 86.8339 94.0709C86.8339 89.3416 86.1936 81.881 82.6328 70.241L90.0824 56.4196C91.5555 54.7933 92.4998 52.6154 92.753 50.2605C92.8096 49.8114 92.8357 49.3579 92.8311 48.904C92.8083 47.063 92.3603 45.2637 91.5348 43.6981L93.7057 42.7265L97.0479 41.2051C98.9844 45.9527 100.921 50.6821 102.842 55.4297C104.186 58.075 105.018 61.0352 105.278 64.1002C105.794 70.4976 103.373 74.0721 102.045 81.716C101.298 86.1879 101.114 90.7644 101.499 95.2991Z" fill="#FF8C64"/>
<path d="M91.7977 74.0551C91.8834 75.2972 91.6536 76.5412 91.1374 77.63C90.6212 78.7189 89.8417 79.6039 88.8973 80.1732C87.953 80.7426 86.886 80.9707 85.8313 80.8289C84.7765 80.6871 83.7812 80.1816 82.971 79.3764C82.1608 78.5711 81.572 77.5022 81.279 76.3045C80.986 75.1068 81.0019 73.834 81.3246 72.6469C81.6474 71.4598 82.2626 70.4115 83.0926 69.6345C83.9226 68.8574 84.9301 68.3864 85.9879 68.281C87.4104 68.144 88.8211 68.6751 89.9104 69.7576C90.9996 70.8402 91.6784 72.3858 91.7977 74.0551Z" fill="#FF8C64"/>
<path d="M108.342 111.559C108.363 113.63 108.008 115.682 107.299 117.579C106.591 119.475 105.546 121.173 104.234 122.557H90.8187C89.5087 121.17 88.464 119.472 87.7534 117.577C87.0427 115.681 86.6822 113.63 86.6957 111.559C86.6971 110.108 86.8705 108.664 87.2111 107.27C87.8026 104.546 89.1325 102.122 91.0002 100.363C92.8678 98.6041 95.1721 97.6054 97.5655 97.5176C99.158 97.5423 100.724 97.9965 102.143 98.8452C103.562 99.6939 104.796 100.914 105.749 102.412C107.459 105.036 108.372 108.256 108.342 111.559Z" fill="#FF8C64"/>
<path d="M93.5303 47.9148C93.3258 48.2333 93.0957 48.5279 92.8431 48.7946C92.8204 46.9536 92.3724 45.1544 91.5469 43.5887L93.7177 42.6172L93.8739 42.7455C94.9359 43.6987 94.7797 46.0084 93.5303 47.9148Z" fill="#122275"/>
<path d="M97.572 42.2703C96.1288 43.2419 94.6373 44.1112 93.1054 44.8732C91.8817 45.4716 90.5732 45.7949 89.2479 45.8264C88.9898 45.8669 88.7273 45.8438 88.4772 45.7586C88.2272 45.6734 87.995 45.5279 87.7954 45.3315C87.626 45.1131 87.4992 44.8541 87.4237 44.5723C87.3482 44.2906 87.3258 43.993 87.3582 43.7001C87.3582 43.4984 87.2176 43.4251 87.1551 43.4068C87.0927 43.3885 86.7491 43.5351 86.4836 43.4068C86.3571 43.3338 86.2522 43.2179 86.1826 43.074C86.113 42.9302 86.0818 42.7651 86.0931 42.6002C86.1339 42.4457 86.216 42.3107 86.3274 42.2153C86.1655 42.1743 86.0132 42.0923 85.881 41.9752C85.7489 41.8581 85.6401 41.7086 85.5621 41.5371C85.526 41.4386 85.5074 41.3326 85.5074 41.2254C85.5074 41.1183 85.526 41.0122 85.5621 40.9138C85.6866 40.6538 85.7961 40.3843 85.8901 40.1073C86.4669 38.4989 86.5169 36.697 86.0307 35.048C85.8768 34.715 85.7513 34.365 85.6558 34.0031C85.5902 33.8067 85.538 33.6044 85.4997 33.3982C85.2918 32.2501 85.2918 31.0635 85.4997 29.9154C85.7483 28.2747 86.2956 26.7163 87.1041 25.3465C87.9127 23.9767 88.9636 22.8278 90.1849 21.9781C93.3085 19.9618 98.8371 20.1451 101.383 24.1595C103.928 28.1739 102.32 34.6447 100.461 36.6977C99.6675 37.5156 98.9877 38.4743 98.4466 39.539C98.0565 40.4016 97.7625 41.3196 97.572 42.2703Z" fill="#FF8C64"/>
<path d="M86.3361 39.7036C86.1736 39.543 85.9809 39.4299 85.7739 39.3737C85.524 39.3737 85.4147 39.3737 85.1804 39.3737C85.008 39.2931 84.8608 39.1523 84.7587 38.9704C84.6581 38.7578 84.6095 38.5168 84.6182 38.2738C84.6994 37.9447 84.8762 37.6593 85.118 37.4673C85.6462 36.8646 86.0242 36.104 86.2112 35.2676C86.383 36.0191 86.5704 36.7524 86.7422 37.5039C86.6485 38.1638 86.4767 38.9337 86.3361 39.7036Z" fill="#FF8C64"/>
<path d="M89.3403 34.9922C89.3103 34.9903 89.2809 34.9812 89.254 34.9654C89.2272 34.9497 89.2034 34.9276 89.1841 34.9005C88.8774 34.3956 88.4299 34.0325 87.9191 33.874C87.4546 33.7232 86.9609 33.7554 86.5135 33.9656C86.4657 33.9845 86.4136 33.9818 86.3675 33.9581C86.3213 33.9344 86.2842 33.8913 86.2636 33.8373C86.2509 33.8102 86.2436 33.7801 86.2424 33.7491C86.2412 33.7182 86.246 33.6874 86.2566 33.659C86.2672 33.6307 86.2832 33.6055 86.3033 33.5856C86.3235 33.5657 86.3473 33.5514 86.3729 33.544C86.8992 33.2961 87.479 33.2511 88.0284 33.4157C88.6504 33.6006 89.2008 34.0269 89.5902 34.6256C89.6232 34.6718 89.6413 34.7302 89.6413 34.7905C89.6413 34.8509 89.6232 34.9093 89.5902 34.9555L89.3403 34.9922Z" fill="#122275"/>
<path d="M87.9113 34.4609C87.9113 35.0658 87.6926 35.5974 87.349 35.6157C87.0055 35.6341 86.6775 35.1941 86.6306 34.5892C86.5838 33.9843 86.8337 33.4527 87.1929 33.416C87.5521 33.3794 87.8644 33.856 87.9113 34.4609Z" fill="#122275"/>
<path d="M86.6557 41.4841C87.5303 41.7774 88.4205 40.0909 88.561 40.2376C88.7016 40.3842 87.9051 41.924 87.1711 42.0706C86.8744 42.164 86.5619 42.164 86.2652 42.0706C86.0466 42.0706 85.5312 41.7407 85.4688 41.2274C85.4688 41.0075 85.4687 40.6775 85.6093 40.5859C85.7499 40.4942 86.1871 41.3741 86.6557 41.4841Z" fill="#EA522F"/>
<path d="M87.0687 30.3828C86.947 30.3902 86.8282 30.4285 86.7203 30.4949C86.6125 30.5614 86.5182 30.6545 86.444 30.7678C86.3812 30.8632 86.3351 30.9722 86.3083 31.0886C86.2815 31.205 86.2745 31.3264 86.2878 31.446L87.0687 30.3828Z" fill="#122275"/>
<path d="M87.1726 30.3828C87.0789 30.5295 86.9696 30.7128 86.8134 30.9327C86.6573 31.1527 86.5011 31.3177 86.5167 31.391C86.5323 31.4643 87.61 31.391 88.7032 31.5926C89.3353 31.7141 89.9406 31.982 90.4836 32.3809C90.4431 32.1941 90.38 32.015 90.2962 31.8493C89.5309 30.3828 87.485 30.3828 87.1726 30.3828Z" fill="#122275"/>
<path d="M87.1555 43.5555C87.1107 43.5562 87.0672 43.5382 87.0328 43.5046C86.9985 43.4709 86.9755 43.424 86.968 43.3722C86.9611 43.3433 86.9592 43.313 86.9626 43.2832C86.9659 43.2535 86.9745 43.2248 86.9876 43.199C87.0008 43.1733 87.0183 43.151 87.0391 43.1334C87.0599 43.1159 87.0836 43.1036 87.1086 43.0972L87.7177 42.9139C87.7413 42.9055 87.7661 42.9025 87.7906 42.9053C87.8152 42.9081 87.839 42.9166 87.8608 42.9302C87.8825 42.9438 87.9018 42.9623 87.9174 42.9847C87.9331 43.0071 87.9448 43.0329 87.9519 43.0606C87.9664 43.1213 87.9597 43.1863 87.9333 43.2413C87.907 43.2963 87.8631 43.3368 87.8114 43.3539L87.2023 43.5372L87.1555 43.5555Z" fill="#EA522F"/>
<path d="M87.1478 42.0193C87.1478 42.0193 86.9448 42.3859 86.6325 42.4226C86.4854 42.4799 86.3266 42.4799 86.1796 42.4226L85.9141 42.0743C86.137 42.1087 86.3627 42.1087 86.5856 42.0743C86.9448 42.056 87.1322 41.9643 87.1478 42.0193Z" fill="white"/>
<path d="M110.358 112.15C109.786 116.177 108.061 119.856 105.469 122.58H88.2119C87.0388 121.409 86.0227 120.037 85.1978 118.51C85.6142 114.514 86.0255 110.512 86.4315 106.504C81.8868 91.4176 79.9659 79.6126 80.5125 75.1216C80.7377 73.392 81.1524 71.7038 81.7463 70.099C82.6053 67.9707 83.8095 66.0592 85.2915 64.4715L91.5385 53.2714L92.0695 52.9781L100.019 48.707H100.097H100.253C100.314 48.8046 100.366 48.909 100.409 49.0187C101.989 52.0432 103.278 55.2648 104.251 58.624C106.219 65.3697 106.219 70.3006 106.656 79.6676C106.906 84.397 107.297 91.5093 108.062 100.418C109.978 103.89 110.791 108.044 110.358 112.15Z" fill="#3F469A"/>
<path d="M109.322 41.3714C109.322 42.9158 108.932 44.4256 108.201 45.7098C107.47 46.9939 106.43 47.9948 105.215 48.5859C103.999 49.1769 102.661 49.3315 101.371 49.0302C100.08 48.7289 98.8947 47.9852 97.9643 46.8931C97.0338 45.801 96.4002 44.4096 96.1435 42.8948C95.8867 41.3801 96.0185 39.8099 96.5221 38.3831C97.0256 36.9562 97.8784 35.7366 98.9725 34.8785C100.067 34.0205 101.353 33.5625 102.669 33.5625C104.433 33.5625 106.125 34.3852 107.373 35.8497C108.621 37.3141 109.322 39.3003 109.322 41.3714Z" fill="#122275"/>
<path d="M86.3779 25.3476C86.088 25.387 85.81 25.5053 85.566 25.6931C85.3219 25.8808 85.1186 26.1329 84.9723 26.4291C84.8177 26.7854 84.7736 27.1937 84.8473 27.584C85.1441 29.0321 88.0802 28.5922 90.2666 29.8203C94.6708 32.2766 95.03 40.8188 96.3731 40.5988C96.623 40.5988 96.7011 40.2138 96.9822 39.5906C98.5439 36.3094 100.902 36.2911 102.401 33.7981C103.299 32.1702 103.675 30.2217 103.463 28.2989C103.173 26.3975 102.433 24.63 101.329 23.1977C100.224 21.7653 98.7994 20.7256 97.2165 20.1967C95.1778 19.625 93.038 19.814 91.0952 20.7373C89.1524 21.6606 87.5034 23.2722 86.3779 25.3476Z" fill="#122275"/>
<path d="M87.0923 38.3828C86.5439 38.4419 85.993 38.3051 85.512 37.9905C85.0309 37.6758 84.6421 37.1979 84.3964 36.6194C84.1507 36.0409 84.0597 35.3887 84.1352 34.7485C84.2107 34.1082 84.4493 33.5096 84.8196 33.0312C85.1899 32.5528 85.6748 32.2168 86.2106 32.0674C86.7464 31.9179 87.3082 31.962 87.8223 32.1937C88.3364 32.4254 88.7789 32.8341 89.0917 33.3661C89.4046 33.898 89.5732 34.5285 89.5755 35.1749C89.6053 35.9858 89.3611 36.7777 88.8961 37.3784C88.4311 37.9791 87.7828 38.3401 87.0923 38.3828ZM87.0923 32.4436C86.6209 32.3843 86.1453 32.4942 85.7282 32.7589C85.3112 33.0235 84.9724 33.4305 84.7566 33.9259C84.5408 34.4214 84.4581 34.982 84.5195 35.5338C84.581 36.0855 84.7836 36.6025 85.1006 37.0162C85.4176 37.4299 85.8341 37.7211 86.2951 37.8511C86.756 37.9811 87.2398 37.9439 87.6823 37.7444C88.1249 37.5449 88.5055 37.1924 88.7738 36.7337C89.0421 36.2749 89.1855 35.7314 89.1851 35.1749C89.2149 34.4874 89.0114 33.814 88.6192 33.3021C88.227 32.7902 87.678 32.4815 87.0923 32.4436Z" fill="#122275"/>
<path d="M89.3625 35.4202C89.3178 35.4209 89.2743 35.4029 89.2399 35.3692C89.2055 35.3356 89.1825 35.2887 89.1751 35.2369C89.1658 35.1763 89.1769 35.1138 89.206 35.0625C89.2351 35.0112 89.28 34.9752 89.3313 34.9619L94.5632 33.9354C94.6148 33.9245 94.6681 33.9375 94.7118 33.9717C94.7554 34.0058 94.7861 34.0586 94.7974 34.1187C94.8019 34.1501 94.8009 34.1821 94.7946 34.213C94.7883 34.2439 94.7769 34.273 94.7609 34.2987C94.7449 34.3243 94.7246 34.3459 94.7014 34.3622C94.6782 34.3785 94.6524 34.3892 94.6256 34.3937L89.3937 35.4202H89.3625Z" fill="#122275"/>
<path d="M95.5197 36.4342C95.635 37.1009 95.5297 37.7943 95.2251 38.3731C94.9205 38.952 94.4394 39.3729 93.8798 39.5504C92.8647 39.6421 91.9432 38.4139 91.8183 36.8008C91.6934 35.1877 92.443 33.7762 93.4582 33.6846C94.4733 33.5929 95.3947 34.8027 95.5197 36.4342Z" fill="#FF8C64"/>
<path d="M93.7845 39.794C93.4778 39.8112 93.1736 39.722 92.9099 39.5374C92.8865 39.524 92.8657 39.505 92.8489 39.4816C92.8321 39.4583 92.8197 39.4311 92.8123 39.4018C92.805 39.3725 92.8029 39.3417 92.8063 39.3114C92.8096 39.2811 92.8183 39.2519 92.8318 39.2258C92.8492 39.2053 92.8699 39.189 92.8927 39.1779C92.9155 39.1668 92.9399 39.1611 92.9646 39.1611C92.9892 39.1611 93.0136 39.1668 93.0364 39.1779C93.0592 39.189 93.0799 39.2053 93.0973 39.2258C93.3198 39.3748 93.5764 39.4389 93.8313 39.4091C94.126 39.3564 94.4017 39.2059 94.6259 38.9753C94.85 38.7447 95.0133 38.4436 95.0963 38.1076C95.1066 38.0787 95.1216 38.0525 95.1405 38.0304C95.1594 38.0083 95.1818 37.9908 95.2065 37.9789C95.2311 37.967 95.2575 37.9609 95.2842 37.9609C95.3109 37.961 95.3372 37.9672 95.3619 37.9793C95.3865 37.9913 95.4088 38.0089 95.4276 38.0311C95.4464 38.0533 95.4614 38.0796 95.4715 38.1085C95.4817 38.1374 95.4868 38.1684 95.4868 38.1997C95.4867 38.231 95.4814 38.262 95.4712 38.2909C95.3588 38.6963 95.1537 39.0577 94.8783 39.3357C94.6029 39.6137 94.2678 39.7976 93.9094 39.8673L93.7845 39.794Z" fill="#EA522F"/>
<path d="M95.3905 37.9648C95.2343 37.9648 95.1719 37.7998 95.2031 37.6715C95.2669 37.3469 95.2983 37.0148 95.2968 36.6817C95.2947 36.6513 95.2979 36.6207 95.3064 36.5918C95.3148 36.563 95.3282 36.5365 95.3459 36.5141C95.3635 36.4917 95.3849 36.4739 95.4087 36.4617C95.4325 36.4495 95.4582 36.4433 95.4842 36.4434C95.5369 36.4476 95.5864 36.4741 95.6238 36.5179C95.6611 36.5617 95.6836 36.6199 95.6873 36.6817C95.6913 37.0523 95.6546 37.4219 95.578 37.7815C95.5658 37.8305 95.5414 37.874 95.508 37.9067C95.4747 37.9393 95.4337 37.9596 95.3905 37.9648Z" fill="#EA522F"/>
<path d="M95.4918 36.3519C95.4452 36.3534 95.3995 36.336 95.3625 36.3026C95.3256 36.2692 95.2995 36.2219 95.2888 36.1686C95.1014 34.7938 94.3049 33.8223 93.4771 33.9139C93.2784 33.8991 93.0797 33.9433 92.8993 34.0423C92.8768 34.0653 92.8503 34.0823 92.8217 34.092C92.793 34.1017 92.7629 34.1038 92.7334 34.0983C92.7039 34.0927 92.6759 34.0796 92.6512 34.0599C92.6266 34.0402 92.6059 34.0144 92.5907 33.9842C92.5755 33.9541 92.5662 33.9204 92.5634 33.8855C92.5606 33.8506 92.5643 33.8155 92.5744 33.7825C92.5845 33.7495 92.6006 33.7196 92.6217 33.6948C92.6428 33.67 92.6682 33.6509 92.6962 33.639C92.9051 33.4917 93.1404 33.4038 93.3834 33.3823C94.4298 33.2724 95.3981 34.4089 95.6167 36.022C95.6218 36.0797 95.6088 36.1377 95.58 36.1849C95.5512 36.2322 95.5088 36.2655 95.4606 36.2786L95.4918 36.3519Z" fill="#EA522F"/>
<path d="M93.3827 38.2944C93.2265 38.2944 93.1641 38.1111 93.1953 38.0011L93.9293 35.2149C93.9363 35.185 93.9485 35.1572 93.9652 35.1333C93.9819 35.1093 94.0027 35.0898 94.0263 35.076C94.0499 35.0621 94.0757 35.0543 94.1021 35.0529C94.1284 35.0516 94.1547 35.0568 94.1792 35.0682C94.2028 35.0766 94.2248 35.0904 94.2439 35.1087C94.2629 35.1271 94.2787 35.1497 94.2903 35.1752C94.3019 35.2008 94.3091 35.2288 94.3115 35.2576C94.3139 35.2864 94.3114 35.3155 94.3041 35.3432L93.5701 38.1294C93.5595 38.1778 93.5351 38.2206 93.5011 38.2505C93.467 38.2805 93.4253 38.296 93.3827 38.2944Z" fill="#EA522F"/>
<path d="M93.7209 36.665C93.6972 36.6811 93.6703 36.6895 93.6429 36.6895C93.6155 36.6895 93.5885 36.6811 93.5648 36.665L93.0494 35.8584C93.0175 35.8151 93 35.7598 93 35.7026C93 35.6454 93.0175 35.5901 93.0494 35.5468C93.0872 35.5042 93.1376 35.4805 93.19 35.4805C93.2423 35.4805 93.2927 35.5042 93.3305 35.5468L93.8303 36.335C93.8665 36.3794 93.8868 36.4385 93.8868 36.5C93.8868 36.5615 93.8665 36.6206 93.8303 36.665C93.795 36.6804 93.7562 36.6804 93.7209 36.665Z" fill="#EA522F"/>
<path d="M80.3917 52.6163L80.7216 52.729C81.159 52.8785 81.528 53.2258 81.7473 53.6946C81.9666 54.1633 82.0182 54.7151 81.8909 55.2286L80.0969 62.4623L76.468 61.2224L78.262 53.9888C78.3894 53.4753 78.6853 53.0422 79.0847 52.7848C79.4841 52.5275 79.9542 52.4668 80.3917 52.6163Z" fill="#3F469A"/>
<path d="M77.2571 65.8084C76.8397 65.6652 76.4504 65.4269 76.1115 65.1071C75.7726 64.7873 75.4906 64.3923 75.2818 63.9446C75.073 63.4969 74.9413 63.0054 74.8944 62.4979C74.8474 61.9905 74.8861 61.4772 75.0081 60.9874L76.9135 59.1543L80.568 60.4191L81.3645 63.0771C81.2508 63.5752 81.0538 64.0419 80.7849 64.4497C80.516 64.8576 80.1807 65.1986 79.7984 65.4528C79.4161 65.707 78.9945 65.8694 78.5582 65.9304C78.1219 65.9915 77.6796 65.95 77.2571 65.8084Z" fill="#E3E3FD"/>
<path d="M81.4734 51.0659L80.4688 50.7227L79.8576 53.1867L80.8623 53.53L81.4734 51.0659Z" fill="#3F469A"/>
<path d="M83.5139 56.2741H80.3904C80.165 56.1626 79.9856 55.9521 79.8906 55.6875C79.8268 55.4232 79.8415 55.1412 79.9323 54.888C80.0232 54.6348 80.1847 54.4255 80.3904 54.2944L82.8111 53.9277L83.5139 56.2741Z" fill="#122275"/>
<path d="M81.4528 51.0518L80.6875 50.7952L81.0623 49.457L81.9369 49.732C81.7807 50.1719 81.6246 50.5385 81.4528 51.0518Z" fill="#122275"/>
<path d="M60.5714 94.4076C57.8447 95.9047 54.7467 96.1849 51.8568 95.1958C50.1416 94.5507 48.5723 93.4606 47.2652 92.0063L46.375 75.3253C48.4678 71.5125 51.7943 69.6244 54.5274 70.5043C55.6495 70.8756 56.6439 71.6515 57.3698 72.7223L58.6816 87.0936C59.0302 89.6198 59.6658 92.0797 60.5714 94.4076Z" fill="#E3E3FD"/>
<path d="M57.3925 101.061L53.3944 100.566C49.5056 100.236 44.9766 99.8876 44.9609 100.016C45.149 100.083 45.3428 100.126 45.5388 100.144C48.2094 100.603 53.6599 97.1747 55.7995 95.7632C63.3885 95.2751 70.9253 93.993 78.3201 91.9321C80.4753 91.3272 82.5681 90.6673 84.5671 89.9707L89.6428 90.5206C90.0279 92.0457 89.9674 93.6782 89.471 95.1583C89.0198 96.3008 88.3419 97.2998 87.4941 98.0716C86.6464 98.8434 85.6534 99.3656 84.5983 99.5943C83.0997 100.048 81.5759 100.379 80.038 100.584C72.2292 101.629 68.3717 98.8794 60.844 100.199C59.6815 100.415 58.5294 100.703 57.3925 101.061Z" fill="#FF8C64"/>
<path d="M88.2109 89.9505H94.7703C97.0403 84.2832 98.8041 78.3552 100.033 72.2613C100.596 69.4567 101.002 66.7621 101.314 64.2325C101.58 59.5765 99.2994 56.4603 97.6127 56.4786C95.926 56.4969 94.3174 59.0082 93.9426 62.6194C91.9956 71.6748 90.085 80.7851 88.2109 89.9505Z" fill="#FF8C64"/>
<path d="M95.0796 94.1357C94.266 95.8806 93.2104 97.4541 91.9561 98.7918C90.836 99.9983 89.5671 100.999 88.1923 101.761L69.6074 102.678C68.2018 100.014 66.8014 97.3558 65.4062 94.704L84.5065 89.9747L91.3158 61.0121C91.6782 59.3932 92.5737 58.0096 93.8053 57.1656C95.0369 56.3217 96.5037 56.0865 97.883 56.5119C99.2623 56.9373 100.441 57.9884 101.16 59.4339C101.879 60.8795 102.08 62.6011 101.717 64.22L95.0796 94.1357Z" fill="#3F469A"/>
<path d="M84.5337 90.2025C84.5049 90.198 84.4771 90.1868 84.452 90.1696C84.4269 90.1523 84.405 90.1294 84.3875 90.1021C84.37 90.0747 84.3574 90.0436 84.3503 90.0105C84.3432 89.9774 84.3419 89.943 84.3463 89.9092L89.9374 63.6229C89.9498 63.5646 89.9815 63.5144 90.0254 63.4835C90.0693 63.4525 90.1219 63.4434 90.1716 63.4579C90.2213 63.4725 90.2641 63.5097 90.2904 63.5613C90.3168 63.6128 90.3246 63.6746 90.3122 63.7329L84.7211 90.0192C84.7136 90.071 84.6907 90.1179 84.6563 90.1515C84.6219 90.1851 84.5784 90.2032 84.5337 90.2025Z" fill="#BBBBF9"/>
<path d="M85.5546 102.105C85.5049 102.105 85.4572 102.081 85.4221 102.04C85.3869 101.999 85.3672 101.943 85.3672 101.885C85.3672 101.775 85.3672 101.665 85.5546 101.646C88.2748 101.642 90.9168 100.578 93.0667 98.6218C95.6279 96.1472 96.5025 92.8476 97.7519 86.4135C99.0013 79.9794 100.157 73.1054 101.078 66.3414C101.09 66.2812 101.12 66.2285 101.164 66.1943C101.208 66.1601 101.261 66.1472 101.313 66.1581C101.338 66.1625 101.361 66.1727 101.383 66.1881C101.404 66.2035 101.422 66.2237 101.437 66.2477C101.452 66.2716 101.462 66.2987 101.467 66.3274C101.473 66.3561 101.473 66.3858 101.469 66.4147C100.547 73.1787 99.423 79.9428 98.1268 86.5785C96.8305 93.2142 95.9403 96.4954 93.2853 99.0434C91.0535 101.082 88.3046 102.186 85.4765 102.178L85.5546 102.105Z" fill="#BBBBF9"/>
<path d="M11.371 57.7616C11.1031 57.7104 10.8465 57.5977 10.6158 57.4298C10.3852 57.262 10.185 57.0423 10.0269 56.7834C9.86869 56.5245 9.75564 56.2316 9.69418 55.9213C9.63272 55.611 9.62406 55.2895 9.66871 54.9753L14.7913 18.8454C14.9046 18.2382 15.2127 17.7054 15.6516 17.3575C16.0906 17.0097 16.6268 16.8736 17.1491 16.9773C17.6713 17.081 18.1394 17.4167 18.4565 17.9147C18.7735 18.4127 18.9151 19.0348 18.8518 19.652L13.7449 55.7635C13.7013 56.078 13.6052 56.3792 13.4622 56.6499C13.3192 56.9207 13.132 57.1556 12.9115 57.3412C12.6909 57.5269 12.4413 57.6596 12.177 57.7317C11.9126 57.8038 11.6387 57.814 11.371 57.7616Z" fill="#E3E3FD"/>
<path d="M3.8668 83.5299C3.65556 83.5299 3.45296 83.4314 3.30359 83.2561C3.15422 83.0808 3.07031 82.843 3.07031 82.595V36.7682C3.10657 36.5565 3.20416 36.366 3.34651 36.2292C3.48886 36.0923 3.66719 36.0176 3.85119 36.0176C4.03519 36.0176 4.2135 36.0923 4.35585 36.2292C4.4982 36.366 4.59581 36.5565 4.63207 36.7682V82.595C4.63223 82.8368 4.5526 83.0692 4.40992 83.2435C4.26724 83.4178 4.07258 83.5204 3.8668 83.5299Z" fill="#E3E3FD"/>
<path d="M12.8771 37.3019H2.31965C1.95101 37.3019 1.59748 37.1301 1.33681 36.8241C1.07614 36.5181 0.929688 36.1032 0.929688 35.6705C0.929688 35.2378 1.07614 34.8228 1.33681 34.5169C1.59748 34.2109 1.95101 34.0391 2.31965 34.0391H12.8928C13.2614 34.0391 13.6149 34.2109 13.8756 34.5169C14.1363 34.8228 14.2827 35.2378 14.2827 35.6705C14.2827 36.1032 14.1363 36.5181 13.8756 36.8241C13.6149 37.1301 13.2614 37.3019 12.8928 37.3019H12.8771Z" fill="#E3E3FD"/>
<path d="M62.6395 101.865L58.2822 100.509C57.5089 100.931 56.7103 101.287 55.8927 101.572C53.9734 102.234 51.9699 102.495 49.9736 102.342C48.9586 102.28 47.9501 102.114 46.9595 101.847C45.8846 101.567 44.8378 101.155 43.8359 100.619C44.9136 100.051 46.0224 99.5007 47.2093 98.9691C49.9925 97.6989 52.8404 96.6337 55.7365 95.7795L61.8274 94.918L62.6395 101.865Z" fill="#122275"/>
<path d="M10.0129 76.6777C7.77964 73.9098 8.02953 70.4086 9.29455 69.3454C10.3097 68.4839 12.3244 68.9055 13.9798 70.5736C20.6173 73.4698 25.8336 74.5513 29.1914 76.2744C31.3284 77.3635 33.4138 78.5873 35.4384 79.9406C41.3262 83.9367 48.0418 90.3341 47.2921 92.0389C46.9485 92.7904 44.8089 93.322 32.1118 87.8045L10.0129 76.6777Z" fill="#FF8C64"/>
<path d="M35.8139 103.699C35.2041 104.289 34.4328 104.599 33.643 104.572C32.8532 104.545 32.0985 104.183 31.519 103.553L5.53138 73.5636C5.26302 73.2615 5.05205 72.8964 4.91229 72.492C4.77254 72.0876 4.70716 71.6531 4.72043 71.217C4.7337 70.7808 4.82531 70.3529 4.98929 69.9613C5.15327 69.5696 5.3859 69.223 5.67194 68.9442C6.28354 68.3568 7.05593 68.0498 7.84576 68.0802C8.63559 68.1105 9.3892 68.4761 9.96677 69.1092L35.9544 99.0066C36.2358 99.3075 36.458 99.6766 36.6056 100.088C36.7532 100.5 36.8228 100.945 36.8094 101.391C36.796 101.838 36.7001 102.275 36.5282 102.674C36.3563 103.072 36.1125 103.422 35.8139 103.699Z" fill="#E3E3FD"/>
<path d="M34.0463 121.75H0V76.1986L6.66869 71.0293L34.0463 100.688L69.5919 100.56C71.6145 103.746 72.6914 107.623 72.6575 111.596C72.6237 115.569 71.481 119.419 69.4045 122.557L34.0463 121.75Z" fill="#E3E3FD"/>
<path d="M31.6837 105.128C31.6436 105.147 31.5989 105.147 31.5588 105.128L6.4145 76.7159C6.39702 76.6954 6.38316 76.6711 6.3737 76.6444C6.36424 76.6177 6.35938 76.589 6.35938 76.56C6.35938 76.5311 6.36424 76.5024 6.3737 76.4757C6.38316 76.4489 6.39702 76.4247 6.4145 76.4042C6.4523 76.3617 6.50266 76.3379 6.55505 76.3379C6.60744 76.3379 6.65779 76.3617 6.6956 76.4042L31.8399 104.799C31.8574 104.819 31.8712 104.843 31.8807 104.87C31.8902 104.897 31.895 104.925 31.895 104.954C31.895 104.983 31.8902 105.012 31.8807 105.039C31.8712 105.065 31.8574 105.09 31.8399 105.11C31.8176 105.129 31.7913 105.141 31.7639 105.144C31.7365 105.147 31.7088 105.142 31.6837 105.128Z" fill="#BBBBF9"/>
<path d="M68.5772 106.609H33.9062C33.8551 106.604 33.8073 106.577 33.7726 106.533C33.7378 106.489 33.7186 106.431 33.7188 106.37C33.7188 106.341 33.7236 106.313 33.733 106.286C33.7424 106.259 33.7562 106.235 33.7736 106.215C33.791 106.194 33.8117 106.178 33.8344 106.167C33.8572 106.156 33.8815 106.15 33.9062 106.15H68.5772C68.6269 106.15 68.6745 106.174 68.7097 106.215C68.7448 106.256 68.7646 106.312 68.7646 106.37C68.7668 106.401 68.7635 106.431 68.7551 106.46C68.7466 106.489 68.7332 106.515 68.7155 106.538C68.6979 106.56 68.6765 106.578 68.6527 106.59C68.6289 106.603 68.6031 106.609 68.5772 106.609Z" fill="#BBBBF9"/>
<path d="M82.3504 90.7531C82.308 90.7389 82.2707 90.7088 82.2441 90.6675C82.2175 90.6261 82.2031 90.5757 82.2031 90.524C82.2031 90.4722 82.2175 90.4218 82.2441 90.3804C82.2707 90.3391 82.308 90.309 82.3504 90.2948L84.5525 89.7449C84.5802 89.7313 84.6101 89.7252 84.6402 89.7268C84.6702 89.7285 84.6995 89.738 84.726 89.7545C84.7525 89.7711 84.7756 89.7944 84.7935 89.8227C84.8114 89.8509 84.8238 89.8836 84.8297 89.9181C84.8355 89.9527 84.8348 89.9884 84.8276 90.0226C84.8203 90.0568 84.8066 90.0887 84.7876 90.1159C84.7685 90.1432 84.7446 90.1652 84.7174 90.1803C84.6903 90.1953 84.6606 90.2032 84.6306 90.2032L82.4285 90.7348L82.3504 90.7531Z" fill="#BBBBF9"/>
<path d="M118.26 118.12C113.65 121.254 108.624 123.454 103.392 124.628C101.82 124.777 100.256 125.022 98.7064 125.361C95.8171 126.021 94.6614 126.718 94.2397 126.113C93.818 125.508 94.3178 124.445 96.3481 120.503C98.0348 117.222 98.8781 115.572 99.5653 114.491C102.189 110.171 105.076 106.079 108.202 102.246C115.823 93.6123 131.097 87.7648 133.877 92.1092C136.657 96.4535 127.724 111.411 118.26 118.12Z" fill="#5B98E8"/>
<path d="M94.2198 126.571C94.1726 126.573 94.1255 126.563 94.0823 126.54C94.039 126.518 94.0006 126.485 93.9699 126.443C93.9325 126.401 93.9027 126.352 93.8824 126.297C93.862 126.241 93.8516 126.182 93.8516 126.122C93.8516 126.062 93.862 126.002 93.8824 125.947C93.9027 125.892 93.9325 125.842 93.9699 125.801C104.905 111.103 118.494 99.4491 133.748 91.6875C133.843 91.6432 133.95 91.6432 134.046 91.6875C134.141 91.7317 134.219 91.8169 134.263 91.9258C134.284 91.9811 134.295 92.0407 134.296 92.1011C134.297 92.1615 134.288 92.2216 134.269 92.2778C134.25 92.334 134.222 92.3853 134.186 92.4287C134.15 92.4721 134.107 92.5068 134.06 92.5307C118.871 100.214 105.338 111.788 94.454 126.406C94.3954 126.492 94.3122 126.551 94.2198 126.571Z" fill="#BBBBF9"/>
<path d="M78.4505 109.415C82.3968 111.956 85.9501 115.259 88.9612 119.186C89.7451 120.457 90.5844 121.681 91.4756 122.852C93.1467 125.015 94.0837 125.693 93.8963 126.316C93.7089 126.939 92.8343 126.976 89.5078 126.976C86.7435 126.976 85.3691 126.976 84.4008 126.866C80.591 126.526 76.807 125.864 73.0781 124.886C64.4103 122.173 54.134 111.762 55.602 107.49C57.0701 103.219 70.1888 104.301 78.4505 109.415Z" fill="#5B98E8"/>
<path d="M95.4449 126.815C89.2293 125.546 83.1388 123.544 77.266 120.839C70.0771 117.552 63.2586 113.242 56.9632 108.007C56.8916 107.922 56.8516 107.807 56.8516 107.687C56.8516 107.567 56.8916 107.451 56.9632 107.366C56.9913 107.317 57.0275 107.275 57.0697 107.243C57.1119 107.211 57.1592 107.189 57.2088 107.179C57.2583 107.168 57.3091 107.17 57.3582 107.183C57.4072 107.196 57.4534 107.221 57.4942 107.256C68.8564 116.763 81.8877 123.164 95.6323 125.99C95.7317 126.016 95.819 126.086 95.8768 126.184C95.9347 126.283 95.9589 126.403 95.9446 126.521C95.9091 126.636 95.8375 126.73 95.7446 126.785C95.6516 126.84 95.5443 126.85 95.4449 126.815Z" fill="#BBBBF9"/>
<path d="M98.2894 125.512C98.4598 125.454 98.6176 125.353 98.7522 125.217C98.8869 125.081 98.9953 124.913 99.0703 124.724C99.1682 124.357 99.1651 123.962 99.0614 123.597C98.9577 123.232 98.7586 122.914 98.4924 122.689C98.653 122.598 98.7803 122.442 98.8516 122.249C98.9138 122.002 98.9161 121.738 98.8582 121.489C98.8003 121.24 98.6845 121.014 98.5237 120.838C98.6852 120.347 98.724 119.812 98.6355 119.295C98.5469 118.779 98.3348 118.303 98.0239 117.923C98.0896 117.555 98.0446 117.171 97.8966 116.837C97.7486 116.503 97.5066 116.239 97.2118 116.09C96.9678 115.959 96.6963 115.914 96.4309 115.962C96.4309 114.881 96.2747 114.129 95.7594 113.781C95.4769 113.701 95.181 113.715 94.9051 113.822C94.6292 113.929 94.3842 114.124 94.1976 114.386C93.9807 114.099 93.7037 113.884 93.3941 113.762C93.0846 113.64 92.7532 113.615 92.4328 113.689C92.3026 113.558 92.1549 113.452 91.9955 113.377C91.1834 112.956 90.3401 113.139 90.0902 113.781C90.0813 113.897 90.0813 114.013 90.0902 114.129C89.4949 114.107 88.9067 114.285 88.3948 114.642C87.8828 114.999 87.4686 115.521 87.2009 116.145C87.1078 116.384 87.0447 116.637 87.0135 116.897C86.1545 117.117 85.5455 117.887 85.6704 118.73C85.5541 118.767 85.4455 118.831 85.3514 118.92C85.2574 119.008 85.1799 119.118 85.1238 119.243C84.9832 119.628 85.1238 120.123 85.4986 120.655C85.445 120.741 85.398 120.833 85.3581 120.93C85.1579 121.47 85.1474 122.081 85.3286 122.63C85.5099 123.179 85.8684 123.622 86.3263 123.863L86.6231 123.973C86.0765 125.659 86.2951 127.309 87.1541 127.767C87.3628 127.86 87.5869 127.895 87.809 127.869C88.0311 127.844 88.2452 127.759 88.4347 127.62C88.552 127.721 88.6775 127.807 88.8095 127.877C89.0367 127.992 89.2807 128.054 89.5279 128.06C89.7889 128.803 90.2881 129.396 90.9179 129.71C91.4646 130.03 92.0957 130.088 92.6783 129.873C93.2609 129.657 93.7496 129.185 94.0414 128.555C94.0345 128.47 94.0345 128.384 94.0414 128.299C94.2995 128.628 94.6133 128.89 94.9629 129.069C95.3863 129.379 95.8956 129.486 96.3846 129.366C96.8735 129.247 97.3041 128.91 97.5866 128.427C97.673 128.197 97.7053 127.944 97.6803 127.694C97.879 127.484 98.0385 127.228 98.1489 126.942C98.3322 126.498 98.3817 125.994 98.2894 125.512Z" fill="#FFC5D2"/>
<path d="M91.8116 119.661C91.7828 119.747 91.7392 119.825 91.6837 119.891C91.6281 119.956 91.5617 120.008 91.4886 120.042C91.4155 120.077 91.3371 120.093 91.2584 120.09C91.1797 120.088 91.1022 120.067 91.0307 120.028C90.9569 119.992 90.89 119.939 90.8341 119.872C90.7781 119.805 90.7342 119.726 90.705 119.638C90.6759 119.551 90.662 119.458 90.6643 119.364C90.6666 119.27 90.685 119.178 90.7184 119.093C90.7504 119.008 90.7966 118.931 90.8543 118.867C90.9119 118.804 90.9798 118.754 91.0541 118.722C91.1283 118.689 91.2073 118.674 91.2865 118.678C91.3656 118.682 91.4433 118.705 91.5149 118.745C91.6573 118.821 91.7684 118.96 91.8239 119.131C91.8795 119.303 91.8751 119.493 91.8116 119.661Z" fill="#122275"/>
<path d="M89.2067 122.231C89.0869 122.169 88.9789 122.08 88.8887 121.969C88.7986 121.858 88.7282 121.727 88.6816 121.584C88.6351 121.44 88.6134 121.288 88.6177 121.134C88.6221 120.981 88.6524 120.83 88.7069 120.691C88.7492 120.533 88.8195 120.387 88.9132 120.263C89.0069 120.139 89.1219 120.04 89.2506 119.972C89.3793 119.904 89.5188 119.869 89.66 119.869C89.8011 119.869 89.9406 119.904 90.0694 119.972C90.1982 120.04 90.3133 120.139 90.4071 120.262C90.5009 120.386 90.5714 120.532 90.6138 120.69C90.6562 120.848 90.6697 121.014 90.6533 121.179C90.6368 121.343 90.5909 121.502 90.5185 121.644C90.4662 121.785 90.3904 121.911 90.2958 122.017C90.2012 122.123 90.0895 122.206 89.9674 122.26C89.8453 122.315 89.7151 122.34 89.5845 122.335C89.4539 122.33 89.3254 122.295 89.2067 122.231Z" fill="#122275"/>
<path d="M94.0717 124.487C93.9576 124.831 93.7575 125.126 93.4977 125.335C93.238 125.543 92.9307 125.655 92.6161 125.654C92.3014 125.654 91.9942 125.543 91.7345 125.334C91.4749 125.126 91.2749 124.83 91.1609 124.486C91.0469 124.142 91.024 123.765 91.0954 123.405C91.1668 123.046 91.3291 122.72 91.561 122.47C91.7929 122.221 92.0837 122.059 92.3951 122.007C92.7066 121.954 93.0242 122.014 93.3065 122.177C93.4867 122.268 93.6497 122.401 93.786 122.567C93.9223 122.733 94.0291 122.929 94.1003 123.144C94.1715 123.359 94.2056 123.588 94.2007 123.819C94.1958 124.049 94.152 124.276 94.0717 124.487Z" fill="#122275"/>
<path d="M94.0116 120.279C93.9798 120.363 93.9342 120.439 93.8774 120.503C93.8205 120.566 93.7536 120.616 93.6803 120.649C93.6071 120.682 93.529 120.698 93.4505 120.696C93.3721 120.694 93.2947 120.674 93.2229 120.636C93.1512 120.599 93.0863 120.545 93.0322 120.479C92.978 120.412 92.9356 120.333 92.9073 120.247C92.879 120.161 92.8655 120.07 92.8674 119.978C92.8693 119.886 92.8866 119.795 92.9184 119.711C92.9826 119.54 93.1017 119.407 93.2497 119.34C93.3976 119.273 93.5621 119.278 93.7071 119.353C93.8521 119.428 93.9656 119.568 94.0227 119.742C94.0798 119.915 94.0758 120.109 94.0116 120.279Z" fill="#122275"/>
<path d="M96.6768 120.764C96.5333 121.136 96.2714 121.427 95.9473 121.574C95.6231 121.721 95.2626 121.714 94.9433 121.552C94.6267 121.384 94.3797 121.076 94.2568 120.694C94.1338 120.313 94.1448 119.89 94.2873 119.518C94.3535 119.331 94.451 119.162 94.5741 119.021C94.6971 118.879 94.8432 118.769 95.0035 118.695C95.1639 118.621 95.3353 118.587 95.5074 118.592C95.6795 118.598 95.8489 118.645 96.0053 118.73C96.1634 118.811 96.3063 118.928 96.4257 119.075C96.5451 119.221 96.6387 119.394 96.7011 119.583C96.7635 119.772 96.7935 119.974 96.7893 120.177C96.7852 120.379 96.7469 120.579 96.6768 120.764Z" fill="#122275"/>
<path d="M92.0546 120.965C92.0066 121.094 91.9173 121.195 91.8061 121.246C91.6949 121.298 91.5709 121.296 91.4611 121.24C91.3545 121.181 91.2719 121.074 91.2311 120.944C91.1902 120.814 91.1943 120.67 91.2425 120.544C91.2646 120.481 91.2973 120.424 91.3384 120.376C91.3796 120.328 91.4285 120.29 91.4823 120.264C91.5361 120.239 91.5937 120.226 91.6517 120.227C91.7097 120.227 91.7671 120.242 91.8203 120.269C91.9298 120.325 92.0158 120.43 92.0597 120.56C92.1036 120.691 92.1017 120.836 92.0546 120.965Z" fill="#122275"/>
<path d="M94.2461 122.3C94.2223 122.368 94.187 122.43 94.1424 122.482C94.0979 122.534 94.0449 122.575 93.9866 122.602C93.9284 122.629 93.866 122.643 93.8033 122.641C93.7405 122.64 93.6787 122.623 93.6214 122.593C93.5647 122.564 93.5136 122.521 93.471 122.468C93.4285 122.415 93.3954 122.352 93.3736 122.284C93.3518 122.216 93.3418 122.143 93.3441 122.071C93.3464 121.998 93.361 121.926 93.3871 121.86C93.4108 121.794 93.4456 121.735 93.4893 121.685C93.5331 121.635 93.5849 121.596 93.6418 121.571C93.6987 121.545 93.7594 121.533 93.8203 121.535C93.8812 121.538 93.941 121.555 93.9962 121.585C94.1096 121.642 94.1994 121.749 94.2461 121.882C94.2929 122.016 94.2929 122.166 94.2461 122.3Z" fill="#122275"/>
<path d="M93.6009 118.363C93.5824 118.529 93.5308 118.687 93.4503 118.826C93.3698 118.964 93.2626 119.078 93.1375 119.158C93.0124 119.238 92.873 119.283 92.7305 119.288C92.588 119.293 92.4464 119.259 92.3174 119.187C92.1884 119.116 92.0755 119.01 91.9879 118.878C91.9003 118.746 91.8405 118.592 91.8134 118.427C91.7863 118.263 91.7926 118.094 91.8318 117.933C91.871 117.772 91.9421 117.624 92.0391 117.502C92.0576 117.336 92.1092 117.177 92.1897 117.039C92.2702 116.901 92.3774 116.787 92.5024 116.707C92.6275 116.626 92.767 116.582 92.9095 116.577C93.052 116.572 93.1936 116.606 93.3226 116.677C93.4516 116.748 93.5645 116.854 93.6521 116.986C93.7397 117.118 93.7994 117.273 93.8266 117.437C93.8537 117.601 93.8474 117.771 93.8082 117.932C93.7689 118.093 93.6979 118.24 93.6009 118.363Z" fill="#122275"/>
</svg>
